<svg width="17" height="21" viewBox="0 0 17 21" fill="none" xmlns="http://www.w3.org/2000/svg">
<path d="M15.0565 18.189C14.2265 19.429 13.3465 20.639 12.0065 20.659C10.6665 20.689 10.2365 19.869 8.71653 19.869C7.18653 19.869 6.71653 20.639 5.44653 20.689C4.13653 20.739 3.14653 19.369 2.30653 18.159C0.596528 15.689 -0.713473 11.139 1.04653 8.07897C1.91653 6.55897 3.47653 5.59897 5.16653 5.56896C6.44653 5.54896 7.66653 6.43896 8.45653 6.43896C9.23653 6.43896 10.7165 5.36897 12.2665 5.52896C12.9165 5.55897 14.7365 5.78896 15.9065 7.50896C15.8165 7.56896 13.7365 8.78897 13.7565 11.319C13.7865 14.339 16.4065 15.349 16.4365 15.359C16.4065 15.429 16.0165 16.799 15.0565 18.189ZM9.34653 2.18896C10.0765 1.35896 11.2865 0.728965 12.2865 0.688965C12.4165 1.85896 11.9465 3.03896 11.2465 3.87896C10.5565 4.72896 9.41653 5.38897 8.29653 5.29896C8.14653 4.14896 8.70653 2.94896 9.34653 2.18896Z" fill="white"/>
</svg>
