<svg width="20" height="13" viewBox="0 0 20 13" fill="none" xmlns="http://www.w3.org/2000/svg">
<path d="M0.605469 11.4805C0.605469 12.0549 1.07109 12.5205 1.64547 12.5205H18.2855C18.8598 12.5205 19.3255 12.0549 19.3255 11.4805C19.3255 10.9062 18.8598 10.4405 18.2855 10.4405H1.64547C1.07109 10.4405 0.605469 10.9062 0.605469 11.4805ZM0.605469 6.28053C0.605469 6.8549 1.07109 7.32053 1.64547 7.32053H18.2855C18.8598 7.32053 19.3255 6.8549 19.3255 6.28053C19.3255 5.70615 18.8598 5.24053 18.2855 5.24053H1.64547C1.07109 5.24053 0.605469 5.70615 0.605469 6.28053ZM1.64547 0.0405273C1.07109 0.0405273 0.605469 0.506151 0.605469 1.08053C0.605469 1.6549 1.07109 2.12053 1.64547 2.12053H18.2855C18.8598 2.12053 19.3255 1.6549 19.3255 1.08053C19.3255 0.506151 18.8598 0.0405273 18.2855 0.0405273H1.64547Z" fill="white"/>
</svg>
