<svg width="1896" height="592" viewBox="0 0 1896 592" fill="none" xmlns="http://www.w3.org/2000/svg">
<g filter="url(#filter0_d_167_874)">
<path d="M252.5 154L80.5 437.5C189.5 487 409 576.5 409 576.5C409 576.5 599.5 378 694 283.5H418.5" stroke="url(#paint0_linear_167_874)"/>
<circle cx="409" cy="576" r="5" fill="white"/>
<circle cx="694" cy="283" r="5" fill="white"/>
<circle cx="81" cy="438" r="5" fill="url(#paint1_linear_167_874)"/>
<circle cx="419" cy="283" r="5" fill="white"/>
<circle cx="419" cy="283" r="5" fill="url(#paint2_linear_167_874)"/>
<path d="M251 139L252.747 156.253L270 158L252.747 159.747L251 177L249.253 159.747L232 158L249.253 156.253L251 139Z" fill="#C4C4C4"/>
<path d="M251 139L252.747 156.253L270 158L252.747 159.747L251 177L249.253 159.747L232 158L249.253 156.253L251 139Z" fill="url(#paint3_diamond_167_874)"/>
<g opacity="0.17" filter="url(#filter1_f_167_874)">
<path d="M251.5 124L254.488 153.512L284 156.5L254.488 159.488L251.5 189L248.512 159.488L219 156.5L248.512 153.512L251.5 124Z" fill="url(#paint4_diamond_167_874)"/>
</g>
<g filter="url(#filter2_f_167_874)">
<path d="M250.5 138L252.293 155.707L270 157.5L252.293 159.293L250.5 177L248.707 159.293L231 157.5L248.707 155.707L250.5 138Z" fill="url(#paint5_diamond_167_874)"/>
</g>
<path d="M835 329.282L1022.27 576L1256 512.988L1033.7 223.615L1133.61 148" stroke="url(#paint6_linear_167_874)"/>
<path d="M1372 343L1477.74 579L1754.27 557.5L1829 261L1542.29 106L1562.12 261" stroke="url(#paint7_linear_167_874)"/>
<circle cx="835" cy="329" r="5" fill="#145D79"/>
<circle cx="1372" cy="343" r="5" fill="#1A4163"/>
<circle cx="1477" cy="579" r="5" fill="#161920"/>
<circle cx="1754" cy="557" r="5" fill="#1D2333"/>
<circle cx="1829" cy="261" r="5" fill="#58B1B7"/>
<circle cx="1542" cy="106" r="5" fill="white"/>
<circle cx="1023" cy="576" r="5" fill="#191D25"/>
<circle cx="1256" cy="513" r="5" fill="#1C294B"/>
<path d="M1132 130L1133.75 147.253L1151 149L1133.75 150.747L1132 168L1130.25 150.747L1113 149L1130.25 147.253L1132 130Z" fill="#C4C4C4"/>
<path d="M1132 130L1133.75 147.253L1151 149L1133.75 150.747L1132 168L1130.25 150.747L1113 149L1130.25 147.253L1132 130Z" fill="url(#paint8_diamond_167_874)"/>
<g opacity="0.17" filter="url(#filter3_f_167_874)">
<path d="M1132.5 115L1135.49 144.512L1165 147.5L1135.49 150.488L1132.5 180L1129.51 150.488L1100 147.5L1129.51 144.512L1132.5 115Z" fill="url(#paint9_diamond_167_874)"/>
</g>
<g filter="url(#filter4_f_167_874)">
<path d="M1131.5 129L1133.29 146.707L1151 148.5L1133.29 150.293L1131.5 168L1129.71 150.293L1112 148.5L1129.71 146.707L1131.5 129Z" fill="url(#paint10_diamond_167_874)"/>
</g>
<path d="M1562 241L1563.75 258.253L1581 260L1563.75 261.747L1562 279L1560.25 261.747L1543 260L1560.25 258.253L1562 241Z" fill="#C4C4C4"/>
<path d="M1562 241L1563.75 258.253L1581 260L1563.75 261.747L1562 279L1560.25 261.747L1543 260L1560.25 258.253L1562 241Z" fill="url(#paint11_diamond_167_874)"/>
<g opacity="0.17" filter="url(#filter5_f_167_874)">
<path d="M1562.5 226L1565.49 255.512L1595 258.5L1565.49 261.488L1562.5 291L1559.51 261.488L1530 258.5L1559.51 255.512L1562.5 226Z" fill="url(#paint12_diamond_167_874)"/>
</g>
<g filter="url(#filter6_f_167_874)">
<path d="M1561.5 240L1563.29 257.707L1581 259.5L1563.29 261.293L1561.5 279L1559.71 261.293L1542 259.5L1559.71 257.707L1561.5 240Z" fill="url(#paint13_diamond_167_874)"/>
</g>
<path d="M1034.2 211L1035.25 221.352L1045.6 222.4L1035.25 223.448L1034.2 233.8L1033.15 223.448L1022.8 222.4L1033.15 221.352L1034.2 211Z" fill="#C4C4C4"/>
<path d="M1034.2 211L1035.25 221.352L1045.6 222.4L1035.25 223.448L1034.2 233.8L1033.15 223.448L1022.8 222.4L1033.15 221.352L1034.2 211Z" fill="url(#paint14_diamond_167_874)"/>
<g opacity="0.17" filter="url(#filter7_f_167_874)">
<path d="M1034.5 202L1036.29 219.707L1054 221.5L1036.29 223.293L1034.5 241L1032.71 223.293L1015 221.5L1032.71 219.707L1034.5 202Z" fill="url(#paint15_diamond_167_874)"/>
</g>
<g filter="url(#filter8_f_167_874)">
<path d="M1033.9 210.4L1034.98 221.025L1045.6 222.1L1034.98 223.176L1033.9 233.8L1032.82 223.176L1022.2 222.1L1032.82 221.025L1033.9 210.4Z" fill="url(#paint16_diamond_167_874)"/>
</g>
<g opacity="0.1" filter="url(#filter9_f_167_874)">
<path d="M818.2 177L819.248 187.352L829.6 188.4L819.248 189.448L818.2 199.8L817.152 189.448L806.8 188.4L817.152 187.352L818.2 177Z" fill="#C4C4C4"/>
<path d="M818.2 177L819.248 187.352L829.6 188.4L819.248 189.448L818.2 199.8L817.152 189.448L806.8 188.4L817.152 187.352L818.2 177Z" fill="url(#paint17_diamond_167_874)"/>
<g opacity="0.17" filter="url(#filter10_f_167_874)">
<path d="M818.5 168L820.293 185.707L838 187.5L820.293 189.293L818.5 207L816.707 189.293L799 187.5L816.707 185.707L818.5 168Z" fill="url(#paint18_diamond_167_874)"/>
</g>
<g filter="url(#filter11_f_167_874)">
<path d="M817.9 176.4L818.976 187.025L829.6 188.1L818.976 189.176L817.9 199.8L816.825 189.176L806.2 188.1L816.825 187.025L817.9 176.4Z" fill="url(#paint19_diamond_167_874)"/>
</g>
</g>
<g opacity="0.1">
<path d="M422.354 64.3848L422.864 69.4281L427.907 69.9386L422.864 70.4491L422.354 75.4925L421.843 70.4491L416.8 69.9386L421.843 69.4281L422.354 64.3848Z" fill="#C4C4C4"/>
<path d="M422.354 64.3848L422.864 69.4281L427.907 69.9386L422.864 70.4491L422.354 75.4925L421.843 70.4491L416.8 69.9386L421.843 69.4281L422.354 64.3848Z" fill="url(#paint20_diamond_167_874)"/>
<g opacity="0.17" filter="url(#filter12_f_167_874)">
<path d="M422.5 60L423.373 68.6267L432 69.5L423.373 70.3733L422.5 79L421.627 70.3733L413 69.5L421.627 68.6267L422.5 60Z" fill="url(#paint21_diamond_167_874)"/>
</g>
<g filter="url(#filter13_f_167_874)">
<path d="M422.208 64.0918L422.732 69.2678L427.908 69.7918L422.732 70.3158L422.208 75.4918L421.684 70.3158L416.508 69.7918L421.684 69.2678L422.208 64.0918Z" fill="url(#paint22_diamond_167_874)"/>
</g>
</g>
<path d="M109.4 78L109.749 81.4507L113.2 81.8L109.749 82.1493L109.4 85.6L109.05 82.1493L105.6 81.8L109.05 81.4507L109.4 78Z" fill="#C4C4C4"/>
<path d="M109.4 78L109.749 81.4507L113.2 81.8L109.749 82.1493L109.4 85.6L109.05 82.1493L105.6 81.8L109.05 81.4507L109.4 78Z" fill="url(#paint23_diamond_167_874)"/>
<g opacity="0.17" filter="url(#filter14_f_167_874)">
<path d="M109.5 75L110.098 80.9025L116 81.5L110.098 82.0975L109.5 88L108.902 82.0975L103 81.5L108.902 80.9025L109.5 75Z" fill="url(#paint24_diamond_167_874)"/>
</g>
<g filter="url(#filter15_f_167_874)">
<path d="M109.3 77.7998L109.659 81.3413L113.2 81.6998L109.659 82.0583L109.3 85.5998L108.942 82.0583L105.4 81.6998L108.942 81.3413L109.3 77.7998Z" fill="url(#paint25_diamond_167_874)"/>
</g>
<path d="M37.4231 131.308L37.6918 133.962L40.3462 134.231L37.6918 134.499L37.4231 137.154L37.1544 134.499L34.5 134.231L37.1544 133.962L37.4231 131.308Z" fill="#C4C4C4"/>
<path d="M37.4231 131.308L37.6918 133.962L40.3462 134.231L37.6918 134.499L37.4231 137.154L37.1544 134.499L34.5 134.231L37.1544 133.962L37.4231 131.308Z" fill="url(#paint26_diamond_167_874)"/>
<g opacity="0.17" filter="url(#filter16_f_167_874)">
<path d="M37.5 129L37.9596 133.54L42.5 134L37.9596 134.46L37.5 139L37.0404 134.46L32.5 134L37.0404 133.54L37.5 129Z" fill="url(#paint27_diamond_167_874)"/>
</g>
<g filter="url(#filter17_f_167_874)">
<path d="M37.3467 131.154L37.6225 133.879L40.3467 134.154L37.6225 134.43L37.3467 137.154L37.0709 134.43L34.3467 134.154L37.0709 133.879L37.3467 131.154Z" fill="url(#paint28_diamond_167_874)"/>
</g>
<path d="M717.385 118.462L717.788 122.443L721.769 122.847L717.788 123.25L717.385 127.231L716.982 123.25L713 122.847L716.982 122.443L717.385 118.462Z" fill="#C4C4C4"/>
<path d="M717.385 118.462L717.788 122.443L721.769 122.847L717.788 123.25L717.385 127.231L716.982 123.25L713 122.847L716.982 122.443L717.385 118.462Z" fill="url(#paint29_diamond_167_874)"/>
<g opacity="0.17" filter="url(#filter18_f_167_874)">
<path d="M717.5 115L718.189 121.811L725 122.5L718.189 123.189L717.5 130L716.811 123.189L710 122.5L716.811 121.811L717.5 115Z" fill="url(#paint30_diamond_167_874)"/>
</g>
<g filter="url(#filter19_f_167_874)">
<path d="M717.27 118.23L717.683 122.317L721.77 122.73L717.683 123.144L717.27 127.23L716.856 123.144L712.77 122.73L716.856 122.317L717.27 118.23Z" fill="url(#paint31_diamond_167_874)"/>
</g>
<g opacity="0.1">
<path d="M540.231 166.076L541.171 175.366L550.462 176.307L541.171 177.247L540.231 186.538L539.29 177.247L530 176.307L539.29 175.366L540.231 166.076Z" fill="#C4C4C4"/>
<path d="M540.231 166.076L541.171 175.366L550.462 176.307L541.171 177.247L540.231 186.538L539.29 177.247L530 176.307L539.29 175.366L540.231 166.076Z" fill="url(#paint32_diamond_167_874)"/>
<g opacity="0.17" filter="url(#filter20_f_167_874)">
<path d="M540.5 158L542.109 173.891L558 175.5L542.109 177.109L540.5 193L538.891 177.109L523 175.5L538.891 173.891L540.5 158Z" fill="url(#paint33_diamond_167_874)"/>
</g>
<g filter="url(#filter21_f_167_874)">
<path d="M539.962 165.538L540.927 175.073L550.462 176.038L540.927 177.003L539.962 186.538L538.997 177.003L529.462 176.038L538.997 175.073L539.962 165.538Z" fill="url(#paint34_diamond_167_874)"/>
</g>
</g>
<path d="M1359.38 250.462L1359.79 254.443L1363.77 254.847L1359.79 255.25L1359.38 259.231L1358.98 255.25L1355 254.847L1358.98 254.443L1359.38 250.462Z" fill="#C4C4C4"/>
<path d="M1359.38 250.462L1359.79 254.443L1363.77 254.847L1359.79 255.25L1359.38 259.231L1358.98 255.25L1355 254.847L1358.98 254.443L1359.38 250.462Z" fill="url(#paint35_diamond_167_874)"/>
<g opacity="0.17" filter="url(#filter22_f_167_874)">
<path d="M1359.5 247L1360.19 253.811L1367 254.5L1360.19 255.189L1359.5 262L1358.81 255.189L1352 254.5L1358.81 253.811L1359.5 247Z" fill="url(#paint36_diamond_167_874)"/>
</g>
<g filter="url(#filter23_f_167_874)">
<path d="M1359.27 250.23L1359.68 254.317L1363.77 254.73L1359.68 255.144L1359.27 259.23L1358.86 255.144L1354.77 254.73L1358.86 254.317L1359.27 250.23Z" fill="url(#paint37_diamond_167_874)"/>
</g>
<g opacity="0.05">
<path d="M1511.28 126.692L1512.06 134.39L1519.75 135.169L1512.06 135.949L1511.28 143.646L1510.5 135.949L1502.8 135.169L1510.5 134.39L1511.28 126.692Z" fill="#C4C4C4"/>
<path d="M1511.28 126.692L1512.06 134.39L1519.75 135.169L1512.06 135.949L1511.28 143.646L1510.5 135.949L1502.8 135.169L1510.5 134.39L1511.28 126.692Z" fill="url(#paint38_diamond_167_874)"/>
<g opacity="0.17" filter="url(#filter24_f_167_874)">
<path d="M1511.5 120L1512.83 133.167L1526 134.5L1512.83 135.833L1511.5 149L1510.17 135.833L1497 134.5L1510.17 133.167L1511.5 120Z" fill="url(#paint39_diamond_167_874)"/>
</g>
<g filter="url(#filter25_f_167_874)">
<path d="M1511.05 126.246L1511.85 134.146L1519.75 134.946L1511.85 135.746L1511.05 143.646L1510.25 135.746L1502.35 134.946L1510.25 134.146L1511.05 126.246Z" fill="url(#paint40_diamond_167_874)"/>
</g>
</g>
<path d="M1720.44 92.8457L1720.65 94.9692L1722.78 95.1842L1720.65 95.3991L1720.44 97.5226L1720.22 95.3991L1718.1 95.1842L1720.22 94.9692L1720.44 92.8457Z" fill="#C4C4C4"/>
<path d="M1720.44 92.8457L1720.65 94.9692L1722.78 95.1842L1720.65 95.3991L1720.44 97.5226L1720.22 95.3991L1718.1 95.1842L1720.22 94.9692L1720.44 92.8457Z" fill="url(#paint41_diamond_167_874)"/>
<g opacity="0.17" filter="url(#filter26_f_167_874)">
<path d="M1720.5 91L1720.87 94.6323L1724.5 95L1720.87 95.3677L1720.5 99L1720.13 95.3677L1716.5 95L1720.13 94.6323L1720.5 91Z" fill="url(#paint42_diamond_167_874)"/>
</g>
<g filter="url(#filter27_f_167_874)">
<path d="M1720.38 92.7227L1720.6 94.902L1722.78 95.1227L1720.6 95.3433L1720.38 97.5227L1720.16 95.3433L1717.98 95.1227L1720.16 94.902L1720.38 92.7227Z" fill="url(#paint43_diamond_167_874)"/>
</g>
<g opacity="0.05">
<path d="M896.8 217L897.499 223.901L904.4 224.6L897.499 225.299L896.8 232.2L896.102 225.299L889.2 224.6L896.102 223.901L896.8 217Z" fill="#C4C4C4"/>
<path d="M896.8 217L897.499 223.901L904.4 224.6L897.499 225.299L896.8 232.2L896.102 225.299L889.2 224.6L896.102 223.901L896.8 217Z" fill="url(#paint44_diamond_167_874)"/>
<g opacity="0.17" filter="url(#filter28_f_167_874)">
<path d="M897 211L898.195 222.805L910 224L898.195 225.195L897 237L895.805 225.195L884 224L895.805 222.805L897 211Z" fill="url(#paint45_diamond_167_874)"/>
</g>
<g filter="url(#filter29_f_167_874)">
<path d="M896.6 216.6L897.317 223.683L904.4 224.4L897.317 225.117L896.6 232.2L895.883 225.117L888.8 224.4L895.883 223.683L896.6 216.6Z" fill="url(#paint46_diamond_167_874)"/>
</g>
</g>
<g filter="url(#filter30_f_167_874)">
<circle cx="251" cy="158" r="5" fill="white"/>
<circle cx="251" cy="158" r="5" fill="url(#paint47_radial_167_874)"/>
</g>
<g filter="url(#filter31_f_167_874)">
<circle r="6" transform="matrix(-1 0 0 1 842 54)" fill="#299AC0"/>
</g>
<g filter="url(#filter32_f_167_874)">
<circle r="3.5" transform="matrix(-1 0 0 1 806.5 68.5)" fill="#299AC0"/>
</g>
<g filter="url(#filter33_f_167_874)">
<circle cx="1314.5" cy="102.5" r="3.5" fill="#299AC0"/>
</g>
<g filter="url(#filter34_f_167_874)">
<circle cx="1604" cy="73" r="2" fill="#76C1C3"/>
</g>
<g filter="url(#filter35_f_167_874)">
<circle cx="1643" cy="55" r="5" fill="#76C1C3"/>
</g>
<g filter="url(#filter36_f_167_874)">
<circle cx="1659" cy="101" r="2" fill="#76C1C3"/>
</g>
<g filter="url(#filter37_f_167_874)">
<circle cx="1343.5" cy="71.5" r="3.5" fill="#00FFE0"/>
</g>
<g opacity="0.3" filter="url(#filter38_f_167_874)">
<circle cx="1437" cy="87" r="12" fill="#00FFE0"/>
</g>
</g>
<defs>
<filter id="filter0_d_167_874" x="28.5" y="48" width="1809.5" height="544" filterUnits="userSpaceOnUse" color-interpolation-filters="sRGB">
<feFlood flood-opacity="0" result="BackgroundImageFix"/>
<feColorMatrix in="SourceAlpha" type="matrix" values="0 0 0 0 0 0 0 0 0 0 0 0 0 0 0 0 0 0 127 0" result="hardAlpha"/>
<feOffset dy="4"/>
<feGaussianBlur stdDeviation="2"/>
<feComposite in2="hardAlpha" operator="out"/>
<feColorMatrix type="matrix" values="0 0 0 0 0 0 0 0 0 0 0 0 0 0 0 0 0 0 0.25 0"/>
<feBlend mode="normal" in2="BackgroundImageFix" result="effect1_dropShadow_167_874"/>
<feBlend mode="normal" in="SourceGraphic" in2="effect1_dropShadow_167_874" result="shape"/>
</filter>
<filter id="filter1_f_167_874" x="214" y="119" width="75" height="75" filterUnits="userSpaceOnUse" color-interpolation-filters="sRGB">
<feFlood flood-opacity="0" result="BackgroundImageFix"/>
<feBlend mode="normal" in="SourceGraphic" in2="BackgroundImageFix" result="shape"/>
<feGaussianBlur stdDeviation="2.5" result="effect1_foregroundBlur_167_874"/>
</filter>
<filter id="filter2_f_167_874" x="226" y="133" width="49" height="49" filterUnits="userSpaceOnUse" color-interpolation-filters="sRGB">
<feFlood flood-opacity="0" result="BackgroundImageFix"/>
<feBlend mode="normal" in="SourceGraphic" in2="BackgroundImageFix" result="shape"/>
<feGaussianBlur stdDeviation="2.5" result="effect1_foregroundBlur_167_874"/>
</filter>
<filter id="filter3_f_167_874" x="1095" y="110" width="75" height="75" filterUnits="userSpaceOnUse" color-interpolation-filters="sRGB">
<feFlood flood-opacity="0" result="BackgroundImageFix"/>
<feBlend mode="normal" in="SourceGraphic" in2="BackgroundImageFix" result="shape"/>
<feGaussianBlur stdDeviation="2.5" result="effect1_foregroundBlur_167_874"/>
</filter>
<filter id="filter4_f_167_874" x="1107" y="124" width="49" height="49" filterUnits="userSpaceOnUse" color-interpolation-filters="sRGB">
<feFlood flood-opacity="0" result="BackgroundImageFix"/>
<feBlend mode="normal" in="SourceGraphic" in2="BackgroundImageFix" result="shape"/>
<feGaussianBlur stdDeviation="2.5" result="effect1_foregroundBlur_167_874"/>
</filter>
<filter id="filter5_f_167_874" x="1525" y="221" width="75" height="75" filterUnits="userSpaceOnUse" color-interpolation-filters="sRGB">
<feFlood flood-opacity="0" result="BackgroundImageFix"/>
<feBlend mode="normal" in="SourceGraphic" in2="BackgroundImageFix" result="shape"/>
<feGaussianBlur stdDeviation="2.5" result="effect1_foregroundBlur_167_874"/>
</filter>
<filter id="filter6_f_167_874" x="1537" y="235" width="49" height="49" filterUnits="userSpaceOnUse" color-interpolation-filters="sRGB">
<feFlood flood-opacity="0" result="BackgroundImageFix"/>
<feBlend mode="normal" in="SourceGraphic" in2="BackgroundImageFix" result="shape"/>
<feGaussianBlur stdDeviation="2.5" result="effect1_foregroundBlur_167_874"/>
</filter>
<filter id="filter7_f_167_874" x="1010" y="197" width="49" height="49" filterUnits="userSpaceOnUse" color-interpolation-filters="sRGB">
<feFlood flood-opacity="0" result="BackgroundImageFix"/>
<feBlend mode="normal" in="SourceGraphic" in2="BackgroundImageFix" result="shape"/>
<feGaussianBlur stdDeviation="2.5" result="effect1_foregroundBlur_167_874"/>
</filter>
<filter id="filter8_f_167_874" x="1017.2" y="205.4" width="33.4004" height="33.4004" filterUnits="userSpaceOnUse" color-interpolation-filters="sRGB">
<feFlood flood-opacity="0" result="BackgroundImageFix"/>
<feBlend mode="normal" in="SourceGraphic" in2="BackgroundImageFix" result="shape"/>
<feGaussianBlur stdDeviation="2.5" result="effect1_foregroundBlur_167_874"/>
</filter>
<filter id="filter9_f_167_874" x="795" y="164" width="47" height="47" filterUnits="userSpaceOnUse" color-interpolation-filters="sRGB">
<feFlood flood-opacity="0" result="BackgroundImageFix"/>
<feBlend mode="normal" in="SourceGraphic" in2="BackgroundImageFix" result="shape"/>
<feGaussianBlur stdDeviation="2" result="effect1_foregroundBlur_167_874"/>
</filter>
<filter id="filter10_f_167_874" x="794" y="163" width="49" height="49" filterUnits="userSpaceOnUse" color-interpolation-filters="sRGB">
<feFlood flood-opacity="0" result="BackgroundImageFix"/>
<feBlend mode="normal" in="SourceGraphic" in2="BackgroundImageFix" result="shape"/>
<feGaussianBlur stdDeviation="2.5" result="effect1_foregroundBlur_167_874"/>
</filter>
<filter id="filter11_f_167_874" x="801.2" y="171.4" width="33.4004" height="33.4004" filterUnits="userSpaceOnUse" color-interpolation-filters="sRGB">
<feFlood flood-opacity="0" result="BackgroundImageFix"/>
<feBlend mode="normal" in="SourceGraphic" in2="BackgroundImageFix" result="shape"/>
<feGaussianBlur stdDeviation="2.5" result="effect1_foregroundBlur_167_874"/>
</filter>
<filter id="filter12_f_167_874" x="408" y="55" width="29" height="29" filterUnits="userSpaceOnUse" color-interpolation-filters="sRGB">
<feFlood flood-opacity="0" result="BackgroundImageFix"/>
<feBlend mode="normal" in="SourceGraphic" in2="BackgroundImageFix" result="shape"/>
<feGaussianBlur stdDeviation="2.5" result="effect1_foregroundBlur_167_874"/>
</filter>
<filter id="filter13_f_167_874" x="411.508" y="59.0918" width="21.4004" height="21.4004" filterUnits="userSpaceOnUse" color-interpolation-filters="sRGB">
<feFlood flood-opacity="0" result="BackgroundImageFix"/>
<feBlend mode="normal" in="SourceGraphic" in2="BackgroundImageFix" result="shape"/>
<feGaussianBlur stdDeviation="2.5" result="effect1_foregroundBlur_167_874"/>
</filter>
<filter id="filter14_f_167_874" x="98" y="70" width="23" height="23" filterUnits="userSpaceOnUse" color-interpolation-filters="sRGB">
<feFlood flood-opacity="0" result="BackgroundImageFix"/>
<feBlend mode="normal" in="SourceGraphic" in2="BackgroundImageFix" result="shape"/>
<feGaussianBlur stdDeviation="2.5" result="effect1_foregroundBlur_167_874"/>
</filter>
<filter id="filter15_f_167_874" x="100.4" y="72.7998" width="17.7998" height="17.7998" filterUnits="userSpaceOnUse" color-interpolation-filters="sRGB">
<feFlood flood-opacity="0" result="BackgroundImageFix"/>
<feBlend mode="normal" in="SourceGraphic" in2="BackgroundImageFix" result="shape"/>
<feGaussianBlur stdDeviation="2.5" result="effect1_foregroundBlur_167_874"/>
</filter>
<filter id="filter16_f_167_874" x="27.5" y="124" width="20" height="20" filterUnits="userSpaceOnUse" color-interpolation-filters="sRGB">
<feFlood flood-opacity="0" result="BackgroundImageFix"/>
<feBlend mode="normal" in="SourceGraphic" in2="BackgroundImageFix" result="shape"/>
<feGaussianBlur stdDeviation="2.5" result="effect1_foregroundBlur_167_874"/>
</filter>
<filter id="filter17_f_167_874" x="29.3467" y="126.154" width="16" height="16" filterUnits="userSpaceOnUse" color-interpolation-filters="sRGB">
<feFlood flood-opacity="0" result="BackgroundImageFix"/>
<feBlend mode="normal" in="SourceGraphic" in2="BackgroundImageFix" result="shape"/>
<feGaussianBlur stdDeviation="2.5" result="effect1_foregroundBlur_167_874"/>
</filter>
<filter id="filter18_f_167_874" x="705" y="110" width="25" height="25" filterUnits="userSpaceOnUse" color-interpolation-filters="sRGB">
<feFlood flood-opacity="0" result="BackgroundImageFix"/>
<feBlend mode="normal" in="SourceGraphic" in2="BackgroundImageFix" result="shape"/>
<feGaussianBlur stdDeviation="2.5" result="effect1_foregroundBlur_167_874"/>
</filter>
<filter id="filter19_f_167_874" x="707.77" y="113.23" width="19" height="19" filterUnits="userSpaceOnUse" color-interpolation-filters="sRGB">
<feFlood flood-opacity="0" result="BackgroundImageFix"/>
<feBlend mode="normal" in="SourceGraphic" in2="BackgroundImageFix" result="shape"/>
<feGaussianBlur stdDeviation="2.5" result="effect1_foregroundBlur_167_874"/>
</filter>
<filter id="filter20_f_167_874" x="518" y="153" width="45" height="45" filterUnits="userSpaceOnUse" color-interpolation-filters="sRGB">
<feFlood flood-opacity="0" result="BackgroundImageFix"/>
<feBlend mode="normal" in="SourceGraphic" in2="BackgroundImageFix" result="shape"/>
<feGaussianBlur stdDeviation="2.5" result="effect1_foregroundBlur_167_874"/>
</filter>
<filter id="filter21_f_167_874" x="524.462" y="160.538" width="31" height="31" filterUnits="userSpaceOnUse" color-interpolation-filters="sRGB">
<feFlood flood-opacity="0" result="BackgroundImageFix"/>
<feBlend mode="normal" in="SourceGraphic" in2="BackgroundImageFix" result="shape"/>
<feGaussianBlur stdDeviation="2.5" result="effect1_foregroundBlur_167_874"/>
</filter>
<filter id="filter22_f_167_874" x="1347" y="242" width="25" height="25" filterUnits="userSpaceOnUse" color-interpolation-filters="sRGB">
<feFlood flood-opacity="0" result="BackgroundImageFix"/>
<feBlend mode="normal" in="SourceGraphic" in2="BackgroundImageFix" result="shape"/>
<feGaussianBlur stdDeviation="2.5" result="effect1_foregroundBlur_167_874"/>
</filter>
<filter id="filter23_f_167_874" x="1349.77" y="245.23" width="19" height="19" filterUnits="userSpaceOnUse" color-interpolation-filters="sRGB">
<feFlood flood-opacity="0" result="BackgroundImageFix"/>
<feBlend mode="normal" in="SourceGraphic" in2="BackgroundImageFix" result="shape"/>
<feGaussianBlur stdDeviation="2.5" result="effect1_foregroundBlur_167_874"/>
</filter>
<filter id="filter24_f_167_874" x="1492" y="115" width="39" height="39" filterUnits="userSpaceOnUse" color-interpolation-filters="sRGB">
<feFlood flood-opacity="0" result="BackgroundImageFix"/>
<feBlend mode="normal" in="SourceGraphic" in2="BackgroundImageFix" result="shape"/>
<feGaussianBlur stdDeviation="2.5" result="effect1_foregroundBlur_167_874"/>
</filter>
<filter id="filter25_f_167_874" x="1497.35" y="121.246" width="27.4004" height="27.4004" filterUnits="userSpaceOnUse" color-interpolation-filters="sRGB">
<feFlood flood-opacity="0" result="BackgroundImageFix"/>
<feBlend mode="normal" in="SourceGraphic" in2="BackgroundImageFix" result="shape"/>
<feGaussianBlur stdDeviation="2.5" result="effect1_foregroundBlur_167_874"/>
</filter>
<filter id="filter26_f_167_874" x="1711.5" y="86" width="18" height="18" filterUnits="userSpaceOnUse" color-interpolation-filters="sRGB">
<feFlood flood-opacity="0" result="BackgroundImageFix"/>
<feBlend mode="normal" in="SourceGraphic" in2="BackgroundImageFix" result="shape"/>
<feGaussianBlur stdDeviation="2.5" result="effect1_foregroundBlur_167_874"/>
</filter>
<filter id="filter27_f_167_874" x="1712.98" y="87.7227" width="14.7998" height="14.7998" filterUnits="userSpaceOnUse" color-interpolation-filters="sRGB">
<feFlood flood-opacity="0" result="BackgroundImageFix"/>
<feBlend mode="normal" in="SourceGraphic" in2="BackgroundImageFix" result="shape"/>
<feGaussianBlur stdDeviation="2.5" result="effect1_foregroundBlur_167_874"/>
</filter>
<filter id="filter28_f_167_874" x="879" y="206" width="36" height="36" filterUnits="userSpaceOnUse" color-interpolation-filters="sRGB">
<feFlood flood-opacity="0" result="BackgroundImageFix"/>
<feBlend mode="normal" in="SourceGraphic" in2="BackgroundImageFix" result="shape"/>
<feGaussianBlur stdDeviation="2.5" result="effect1_foregroundBlur_167_874"/>
</filter>
<filter id="filter29_f_167_874" x="883.8" y="211.6" width="25.5996" height="25.5996" filterUnits="userSpaceOnUse" color-interpolation-filters="sRGB">
<feFlood flood-opacity="0" result="BackgroundImageFix"/>
<feBlend mode="normal" in="SourceGraphic" in2="BackgroundImageFix" result="shape"/>
<feGaussianBlur stdDeviation="2.5" result="effect1_foregroundBlur_167_874"/>
</filter>
<filter id="filter30_f_167_874" x="235" y="142" width="32" height="32" filterUnits="userSpaceOnUse" color-interpolation-filters="sRGB">
<feFlood flood-opacity="0" result="BackgroundImageFix"/>
<feBlend mode="normal" in="SourceGraphic" in2="BackgroundImageFix" result="shape"/>
<feGaussianBlur stdDeviation="5.5" result="effect1_foregroundBlur_167_874"/>
</filter>
<filter id="filter31_f_167_874" x="833" y="45" width="18" height="18" filterUnits="userSpaceOnUse" color-interpolation-filters="sRGB">
<feFlood flood-opacity="0" result="BackgroundImageFix"/>
<feBlend mode="normal" in="SourceGraphic" in2="BackgroundImageFix" result="shape"/>
<feGaussianBlur stdDeviation="1.5" result="effect1_foregroundBlur_167_874"/>
</filter>
<filter id="filter32_f_167_874" x="798" y="60" width="17" height="17" filterUnits="userSpaceOnUse" color-interpolation-filters="sRGB">
<feFlood flood-opacity="0" result="BackgroundImageFix"/>
<feBlend mode="normal" in="SourceGraphic" in2="BackgroundImageFix" result="shape"/>
<feGaussianBlur stdDeviation="2.5" result="effect1_foregroundBlur_167_874"/>
</filter>
<filter id="filter33_f_167_874" x="1309" y="97" width="11" height="11" filterUnits="userSpaceOnUse" color-interpolation-filters="sRGB">
<feFlood flood-opacity="0" result="BackgroundImageFix"/>
<feBlend mode="normal" in="SourceGraphic" in2="BackgroundImageFix" result="shape"/>
<feGaussianBlur stdDeviation="1" result="effect1_foregroundBlur_167_874"/>
</filter>
<filter id="filter34_f_167_874" x="1599" y="68" width="10" height="10" filterUnits="userSpaceOnUse" color-interpolation-filters="sRGB">
<feFlood flood-opacity="0" result="BackgroundImageFix"/>
<feBlend mode="normal" in="SourceGraphic" in2="BackgroundImageFix" result="shape"/>
<feGaussianBlur stdDeviation="1.5" result="effect1_foregroundBlur_167_874"/>
</filter>
<filter id="filter35_f_167_874" x="1635" y="47" width="16" height="16" filterUnits="userSpaceOnUse" color-interpolation-filters="sRGB">
<feFlood flood-opacity="0" result="BackgroundImageFix"/>
<feBlend mode="normal" in="SourceGraphic" in2="BackgroundImageFix" result="shape"/>
<feGaussianBlur stdDeviation="1.5" result="effect1_foregroundBlur_167_874"/>
</filter>
<filter id="filter36_f_167_874" x="1654" y="96" width="10" height="10" filterUnits="userSpaceOnUse" color-interpolation-filters="sRGB">
<feFlood flood-opacity="0" result="BackgroundImageFix"/>
<feBlend mode="normal" in="SourceGraphic" in2="BackgroundImageFix" result="shape"/>
<feGaussianBlur stdDeviation="1.5" result="effect1_foregroundBlur_167_874"/>
</filter>
<filter id="filter37_f_167_874" x="1338" y="66" width="11" height="11" filterUnits="userSpaceOnUse" color-interpolation-filters="sRGB">
<feFlood flood-opacity="0" result="BackgroundImageFix"/>
<feBlend mode="normal" in="SourceGraphic" in2="BackgroundImageFix" result="shape"/>
<feGaussianBlur stdDeviation="1" result="effect1_foregroundBlur_167_874"/>
</filter>
<filter id="filter38_f_167_874" x="1421" y="71" width="32" height="32" filterUnits="userSpaceOnUse" color-interpolation-filters="sRGB">
<feFlood flood-opacity="0" result="BackgroundImageFix"/>
<feBlend mode="normal" in="SourceGraphic" in2="BackgroundImageFix" result="shape"/>
<feGaussianBlur stdDeviation="2" result="effect1_foregroundBlur_167_874"/>
</filter>
<linearGradient id="paint0_linear_167_874" x1="117" y1="371.5" x2="318.756" y2="607.625" gradientUnits="userSpaceOnUse">
<stop stop-color="#161920"/>
<stop offset="0.15625" stop-color="#161920"/>
<stop offset="0.375" stop-color="#1E232E" stop-opacity="0.78"/>
<stop offset="0.546875" stop-color="#22356F" stop-opacity="0.6"/>
<stop offset="0.734375" stop-color="#1097BB" stop-opacity="0.68"/>
<stop offset="0.890625" stop-color="#00FFE0"/>
<stop offset="1" stop-color="white"/>
</linearGradient>
<linearGradient id="paint1_linear_167_874" x1="55" y1="438" x2="86" y2="438" gradientUnits="userSpaceOnUse">
<stop stop-color="white"/>
<stop offset="1" stop-color="#161920"/>
</linearGradient>
<linearGradient id="paint2_linear_167_874" x1="393" y1="283" x2="424" y2="283" gradientUnits="userSpaceOnUse">
<stop stop-color="white"/>
<stop offset="1" stop-color="#1B2337"/>
</linearGradient>
<radialGradient id="paint3_diamond_167_874" cx="0" cy="0" r="1" gradientUnits="userSpaceOnUse" gradientTransform="translate(251 139) rotate(90) scale(30 25.7674)">
<stop offset="0.119792" stop-color="#F9FBFF"/>
<stop offset="0.302083" stop-color="#01FCDF" stop-opacity="0.989333"/>
<stop offset="0.4375" stop-color="#128EB3" stop-opacity="0.672195"/>
<stop offset="0.572917" stop-color="#22356F" stop-opacity="0.6"/>
<stop offset="0.734375" stop-color="#1097BB" stop-opacity="0.68"/>
<stop offset="0.890625" stop-color="#00FFE0"/>
<stop offset="0.992535" stop-color="white"/>
</radialGradient>
<radialGradient id="paint4_diamond_167_874" cx="0" cy="0" r="1" gradientUnits="userSpaceOnUse" gradientTransform="translate(251.5 124) rotate(90) scale(51.3158 44.0759)">
<stop offset="0.119792" stop-color="#F9FBFF"/>
<stop offset="0.562383" stop-color="#01FCDF" stop-opacity="0.989333"/>
<stop offset="0.71257" stop-color="#00FFE0"/>
<stop offset="0.992535" stop-color="white"/>
</radialGradient>
<radialGradient id="paint5_diamond_167_874" cx="0" cy="0" r="1" gradientUnits="userSpaceOnUse" gradientTransform="translate(250.5 138) rotate(90) scale(30.7895 26.4455)">
<stop offset="0.119792" stop-color="#F9FBFF"/>
<stop offset="0.562383" stop-color="#01FCDF" stop-opacity="0.989333"/>
<stop offset="0.71257" stop-color="#00FFE0"/>
<stop offset="0.992535" stop-color="white"/>
</radialGradient>
<linearGradient id="paint6_linear_167_874" x1="1147.25" y1="663.248" x2="1235.26" y2="271.216" gradientUnits="userSpaceOnUse">
<stop stop-color="#161920"/>
<stop offset="0.097401" stop-color="#161920"/>
<stop offset="0.242119" stop-color="#1E232E" stop-opacity="0.78"/>
<stop offset="0.48755" stop-color="#22356F" stop-opacity="0.6"/>
<stop offset="0.659766" stop-color="#1097BB" stop-opacity="0.68"/>
<stop offset="0.84375" stop-color="#00FFE0"/>
<stop offset="0.953125" stop-color="#0CA1AB"/>
<stop offset="1" stop-color="white"/>
</linearGradient>
<linearGradient id="paint7_linear_167_874" x1="1710.95" y1="675.421" x2="1809.8" y2="242.929" gradientUnits="userSpaceOnUse">
<stop stop-color="#161920"/>
<stop offset="0.097401" stop-color="#161920"/>
<stop offset="0.242119" stop-color="#1E232E" stop-opacity="0.78"/>
<stop offset="0.48755" stop-color="#22356F" stop-opacity="0.6"/>
<stop offset="0.659766" stop-color="#1097BB" stop-opacity="0.68"/>
<stop offset="0.84375" stop-color="#00FFE0"/>
<stop offset="0.953125" stop-color="#0CA1AB"/>
<stop offset="1" stop-color="white"/>
</linearGradient>
<radialGradient id="paint8_diamond_167_874" cx="0" cy="0" r="1" gradientUnits="userSpaceOnUse" gradientTransform="translate(1132 130) rotate(90) scale(30 25.7674)">
<stop offset="0.119792" stop-color="#F9FBFF"/>
<stop offset="0.302083" stop-color="#01FCDF" stop-opacity="0.989333"/>
<stop offset="0.4375" stop-color="#128EB3" stop-opacity="0.672195"/>
<stop offset="0.572917" stop-color="#22356F" stop-opacity="0.6"/>
<stop offset="0.734375" stop-color="#1097BB" stop-opacity="0.68"/>
<stop offset="0.890625" stop-color="#00FFE0"/>
<stop offset="0.992535" stop-color="white"/>
</radialGradient>
<radialGradient id="paint9_diamond_167_874" cx="0" cy="0" r="1" gradientUnits="userSpaceOnUse" gradientTransform="translate(1132.5 115) rotate(90) scale(51.3158 44.0759)">
<stop offset="0.119792" stop-color="#F9FBFF"/>
<stop offset="0.562383" stop-color="#01FCDF" stop-opacity="0.989333"/>
<stop offset="0.71257" stop-color="#00FFE0"/>
<stop offset="0.992535" stop-color="white"/>
</radialGradient>
<radialGradient id="paint10_diamond_167_874" cx="0" cy="0" r="1" gradientUnits="userSpaceOnUse" gradientTransform="translate(1131.5 129) rotate(90) scale(30.7895 26.4455)">
<stop offset="0.119792" stop-color="#F9FBFF"/>
<stop offset="0.562383" stop-color="#01FCDF" stop-opacity="0.989333"/>
<stop offset="0.71257" stop-color="#00FFE0"/>
<stop offset="0.992535" stop-color="white"/>
</radialGradient>
<radialGradient id="paint11_diamond_167_874" cx="0" cy="0" r="1" gradientUnits="userSpaceOnUse" gradientTransform="translate(1562 241) rotate(90) scale(30 25.7674)">
<stop offset="0.119792" stop-color="#F9FBFF"/>
<stop offset="0.302083" stop-color="#01FCDF" stop-opacity="0.989333"/>
<stop offset="0.4375" stop-color="#128EB3" stop-opacity="0.672195"/>
<stop offset="0.572917" stop-color="#22356F" stop-opacity="0.6"/>
<stop offset="0.734375" stop-color="#1097BB" stop-opacity="0.68"/>
<stop offset="0.890625" stop-color="#00FFE0"/>
<stop offset="0.992535" stop-color="white"/>
</radialGradient>
<radialGradient id="paint12_diamond_167_874" cx="0" cy="0" r="1" gradientUnits="userSpaceOnUse" gradientTransform="translate(1562.5 226) rotate(90) scale(51.3158 44.0759)">
<stop offset="0.119792" stop-color="#F9FBFF"/>
<stop offset="0.562383" stop-color="#01FCDF" stop-opacity="0.989333"/>
<stop offset="0.71257" stop-color="#00FFE0"/>
<stop offset="0.992535" stop-color="white"/>
</radialGradient>
<radialGradient id="paint13_diamond_167_874" cx="0" cy="0" r="1" gradientUnits="userSpaceOnUse" gradientTransform="translate(1561.5 240) rotate(90) scale(30.7895 26.4455)">
<stop offset="0.119792" stop-color="#F9FBFF"/>
<stop offset="0.562383" stop-color="#01FCDF" stop-opacity="0.989333"/>
<stop offset="0.71257" stop-color="#00FFE0"/>
<stop offset="0.992535" stop-color="white"/>
</radialGradient>
<radialGradient id="paint14_diamond_167_874" cx="0" cy="0" r="1" gradientUnits="userSpaceOnUse" gradientTransform="translate(1034.2 211) rotate(90) scale(18 15.4605)">
<stop offset="0.119792" stop-color="#F9FBFF"/>
<stop offset="0.536458" stop-color="#D3FFFA"/>
<stop offset="0.992535" stop-color="white"/>
</radialGradient>
<radialGradient id="paint15_diamond_167_874" cx="0" cy="0" r="1" gradientUnits="userSpaceOnUse" gradientTransform="translate(1034.5 202) rotate(90) scale(30.7895 26.4455)">
<stop offset="0.119792" stop-color="#F9FBFF"/>
<stop offset="0.536458" stop-color="#D3FFFA"/>
<stop offset="0.992535" stop-color="white"/>
</radialGradient>
<radialGradient id="paint16_diamond_167_874" cx="0" cy="0" r="1" gradientUnits="userSpaceOnUse" gradientTransform="translate(1033.9 210.4) rotate(90) scale(18.4737 15.8673)">
<stop offset="0.119792" stop-color="#F9FBFF"/>
<stop offset="0.562383" stop-color="#01FCDF" stop-opacity="0.989333"/>
<stop offset="0.992535" stop-color="white"/>
</radialGradient>
<radialGradient id="paint17_diamond_167_874" cx="0" cy="0" r="1" gradientUnits="userSpaceOnUse" gradientTransform="translate(818.2 177) rotate(90) scale(18 15.4605)">
<stop offset="0.119792" stop-color="#F9FBFF"/>
<stop offset="0.536458" stop-color="#D3FFFA"/>
<stop offset="0.992535" stop-color="white"/>
</radialGradient>
<radialGradient id="paint18_diamond_167_874" cx="0" cy="0" r="1" gradientUnits="userSpaceOnUse" gradientTransform="translate(818.5 168) rotate(90) scale(30.7895 26.4455)">
<stop offset="0.119792" stop-color="#F9FBFF"/>
<stop offset="0.536458" stop-color="#D3FFFA"/>
<stop offset="0.992535" stop-color="white"/>
</radialGradient>
<radialGradient id="paint19_diamond_167_874" cx="0" cy="0" r="1" gradientUnits="userSpaceOnUse" gradientTransform="translate(817.9 176.4) rotate(90) scale(18.4737 15.8673)">
<stop offset="0.119792" stop-color="#F9FBFF"/>
<stop offset="0.562383" stop-color="#01FCDF" stop-opacity="0.989333"/>
<stop offset="0.992535" stop-color="white"/>
</radialGradient>
<radialGradient id="paint20_diamond_167_874" cx="0" cy="0" r="1" gradientUnits="userSpaceOnUse" gradientTransform="translate(422.354 64.3848) rotate(90) scale(8.76923 7.53202)">
<stop offset="0.119792" stop-color="#F9FBFF"/>
<stop offset="0.536458" stop-color="#D3FFFA"/>
<stop offset="0.992535" stop-color="white"/>
</radialGradient>
<radialGradient id="paint21_diamond_167_874" cx="0" cy="0" r="1" gradientUnits="userSpaceOnUse" gradientTransform="translate(422.5 60) rotate(90) scale(15 12.8837)">
<stop offset="0.119792" stop-color="#F9FBFF"/>
<stop offset="0.536458" stop-color="#D3FFFA"/>
<stop offset="0.992535" stop-color="white"/>
</radialGradient>
<radialGradient id="paint22_diamond_167_874" cx="0" cy="0" r="1" gradientUnits="userSpaceOnUse" gradientTransform="translate(422.208 64.0918) rotate(90) scale(9 7.73023)">
<stop offset="0.119792" stop-color="#F9FBFF"/>
<stop offset="0.562383" stop-color="#01FCDF" stop-opacity="0.989333"/>
<stop offset="0.992535" stop-color="white"/>
</radialGradient>
<radialGradient id="paint23_diamond_167_874" cx="0" cy="0" r="1" gradientUnits="userSpaceOnUse" gradientTransform="translate(109.4 78) rotate(90) scale(6 5.15349)">
<stop offset="0.119792" stop-color="#F9FBFF"/>
<stop offset="0.536458" stop-color="#D3FFFA"/>
<stop offset="0.992535" stop-color="white"/>
</radialGradient>
<radialGradient id="paint24_diamond_167_874" cx="0" cy="0" r="1" gradientUnits="userSpaceOnUse" gradientTransform="translate(109.5 75) rotate(90) scale(10.2632 8.81517)">
<stop offset="0.119792" stop-color="#F9FBFF"/>
<stop offset="0.536458" stop-color="#D3FFFA"/>
<stop offset="0.992535" stop-color="white"/>
</radialGradient>
<radialGradient id="paint25_diamond_167_874" cx="0" cy="0" r="1" gradientUnits="userSpaceOnUse" gradientTransform="translate(109.3 77.7998) rotate(90) scale(6.15789 5.2891)">
<stop offset="0.119792" stop-color="#F9FBFF"/>
<stop offset="0.562383" stop-color="#01FCDF" stop-opacity="0.989333"/>
<stop offset="0.992535" stop-color="white"/>
</radialGradient>
<radialGradient id="paint26_diamond_167_874" cx="0" cy="0" r="1" gradientUnits="userSpaceOnUse" gradientTransform="translate(37.4231 131.308) rotate(90) scale(4.61538 3.96422)">
<stop offset="0.119792" stop-color="#F9FBFF"/>
<stop offset="0.536458" stop-color="#D3FFFA"/>
<stop offset="0.992535" stop-color="white"/>
</radialGradient>
<radialGradient id="paint27_diamond_167_874" cx="0" cy="0" r="1" gradientUnits="userSpaceOnUse" gradientTransform="translate(37.5 129) rotate(90) scale(7.89474 6.7809)">
<stop offset="0.119792" stop-color="#F9FBFF"/>
<stop offset="0.536458" stop-color="#D3FFFA"/>
<stop offset="0.992535" stop-color="white"/>
</radialGradient>
<radialGradient id="paint28_diamond_167_874" cx="0" cy="0" r="1" gradientUnits="userSpaceOnUse" gradientTransform="translate(37.3467 131.154) rotate(90) scale(4.73684 4.06854)">
<stop offset="0.119792" stop-color="#F9FBFF"/>
<stop offset="0.562383" stop-color="#01FCDF" stop-opacity="0.989333"/>
<stop offset="0.992535" stop-color="white"/>
</radialGradient>
<radialGradient id="paint29_diamond_167_874" cx="0" cy="0" r="1" gradientUnits="userSpaceOnUse" gradientTransform="translate(717.385 118.462) rotate(90) scale(6.92308 5.94633)">
<stop offset="0.119792" stop-color="#F9FBFF"/>
<stop offset="0.536458" stop-color="#D3FFFA"/>
<stop offset="0.992535" stop-color="white"/>
</radialGradient>
<radialGradient id="paint30_diamond_167_874" cx="0" cy="0" r="1" gradientUnits="userSpaceOnUse" gradientTransform="translate(717.5 115) rotate(90) scale(11.8421 10.1714)">
<stop offset="0.119792" stop-color="#F9FBFF"/>
<stop offset="0.536458" stop-color="#D3FFFA"/>
<stop offset="0.992535" stop-color="white"/>
</radialGradient>
<radialGradient id="paint31_diamond_167_874" cx="0" cy="0" r="1" gradientUnits="userSpaceOnUse" gradientTransform="translate(717.27 118.23) rotate(90) scale(7.10526 6.10281)">
<stop offset="0.119792" stop-color="#F9FBFF"/>
<stop offset="0.562383" stop-color="#01FCDF" stop-opacity="0.989333"/>
<stop offset="0.992535" stop-color="white"/>
</radialGradient>
<radialGradient id="paint32_diamond_167_874" cx="0" cy="0" r="1" gradientUnits="userSpaceOnUse" gradientTransform="translate(540.231 166.076) rotate(90) scale(16.1538 13.8748)">
<stop offset="0.119792" stop-color="#F9FBFF"/>
<stop offset="0.536458" stop-color="#D3FFFA"/>
<stop offset="0.992535" stop-color="white"/>
</radialGradient>
<radialGradient id="paint33_diamond_167_874" cx="0" cy="0" r="1" gradientUnits="userSpaceOnUse" gradientTransform="translate(540.5 158) rotate(90) scale(27.6316 23.7332)">
<stop offset="0.119792" stop-color="#F9FBFF"/>
<stop offset="0.536458" stop-color="#D3FFFA"/>
<stop offset="0.992535" stop-color="white"/>
</radialGradient>
<radialGradient id="paint34_diamond_167_874" cx="0" cy="0" r="1" gradientUnits="userSpaceOnUse" gradientTransform="translate(539.962 165.538) rotate(90) scale(16.5789 14.2399)">
<stop offset="0.119792" stop-color="#F9FBFF"/>
<stop offset="0.562383" stop-color="#01FCDF" stop-opacity="0.989333"/>
<stop offset="0.992535" stop-color="white"/>
</radialGradient>
<radialGradient id="paint35_diamond_167_874" cx="0" cy="0" r="1" gradientUnits="userSpaceOnUse" gradientTransform="translate(1359.38 250.462) rotate(90) scale(6.92308 5.94633)">
<stop offset="0.119792" stop-color="#F9FBFF"/>
<stop offset="0.536458" stop-color="#D3FFFA"/>
<stop offset="0.992535" stop-color="white"/>
</radialGradient>
<radialGradient id="paint36_diamond_167_874" cx="0" cy="0" r="1" gradientUnits="userSpaceOnUse" gradientTransform="translate(1359.5 247) rotate(90) scale(11.8421 10.1714)">
<stop offset="0.119792" stop-color="#F9FBFF"/>
<stop offset="0.536458" stop-color="#D3FFFA"/>
<stop offset="0.992535" stop-color="white"/>
</radialGradient>
<radialGradient id="paint37_diamond_167_874" cx="0" cy="0" r="1" gradientUnits="userSpaceOnUse" gradientTransform="translate(1359.27 250.23) rotate(90) scale(7.10526 6.10281)">
<stop offset="0.119792" stop-color="#F9FBFF"/>
<stop offset="0.562383" stop-color="#01FCDF" stop-opacity="0.989333"/>
<stop offset="0.992535" stop-color="white"/>
</radialGradient>
<radialGradient id="paint38_diamond_167_874" cx="0" cy="0" r="1" gradientUnits="userSpaceOnUse" gradientTransform="translate(1511.28 126.692) rotate(90) scale(13.3846 11.4962)">
<stop offset="0.119792" stop-color="#F9FBFF"/>
<stop offset="0.536458" stop-color="#D3FFFA"/>
<stop offset="0.992535" stop-color="white"/>
</radialGradient>
<radialGradient id="paint39_diamond_167_874" cx="0" cy="0" r="1" gradientUnits="userSpaceOnUse" gradientTransform="translate(1511.5 120) rotate(90) scale(22.8947 19.6646)">
<stop offset="0.119792" stop-color="#F9FBFF"/>
<stop offset="0.536458" stop-color="#D3FFFA"/>
<stop offset="0.992535" stop-color="white"/>
</radialGradient>
<radialGradient id="paint40_diamond_167_874" cx="0" cy="0" r="1" gradientUnits="userSpaceOnUse" gradientTransform="translate(1511.05 126.246) rotate(90) scale(13.7368 11.7988)">
<stop offset="0.119792" stop-color="#F9FBFF"/>
<stop offset="0.562383" stop-color="#01FCDF" stop-opacity="0.989333"/>
<stop offset="0.992535" stop-color="white"/>
</radialGradient>
<radialGradient id="paint41_diamond_167_874" cx="0" cy="0" r="1" gradientUnits="userSpaceOnUse" gradientTransform="translate(1720.44 92.8457) rotate(90) scale(3.69231 3.17138)">
<stop offset="0.119792" stop-color="#F9FBFF"/>
<stop offset="0.536458" stop-color="#D3FFFA"/>
<stop offset="0.992535" stop-color="white"/>
</radialGradient>
<radialGradient id="paint42_diamond_167_874" cx="0" cy="0" r="1" gradientUnits="userSpaceOnUse" gradientTransform="translate(1720.5 91) rotate(90) scale(6.31579 5.42472)">
<stop offset="0.119792" stop-color="#F9FBFF"/>
<stop offset="0.536458" stop-color="#D3FFFA"/>
<stop offset="0.992535" stop-color="white"/>
</radialGradient>
<radialGradient id="paint43_diamond_167_874" cx="0" cy="0" r="1" gradientUnits="userSpaceOnUse" gradientTransform="translate(1720.38 92.7227) rotate(90) scale(3.78947 3.25483)">
<stop offset="0.119792" stop-color="#F9FBFF"/>
<stop offset="0.562383" stop-color="#01FCDF" stop-opacity="0.989333"/>
<stop offset="0.992535" stop-color="white"/>
</radialGradient>
<radialGradient id="paint44_diamond_167_874" cx="0" cy="0" r="1" gradientUnits="userSpaceOnUse" gradientTransform="translate(896.8 217) rotate(90) scale(12 10.307)">
<stop offset="0.119792" stop-color="#F9FBFF"/>
<stop offset="0.536458" stop-color="#D3FFFA"/>
<stop offset="0.992535" stop-color="white"/>
</radialGradient>
<radialGradient id="paint45_diamond_167_874" cx="0" cy="0" r="1" gradientUnits="userSpaceOnUse" gradientTransform="translate(897 211) rotate(90) scale(20.5263 17.6303)">
<stop offset="0.119792" stop-color="#F9FBFF"/>
<stop offset="0.536458" stop-color="#D3FFFA"/>
<stop offset="0.992535" stop-color="white"/>
</radialGradient>
<radialGradient id="paint46_diamond_167_874" cx="0" cy="0" r="1" gradientUnits="userSpaceOnUse" gradientTransform="translate(896.6 216.6) rotate(90) scale(12.3158 10.5782)">
<stop offset="0.119792" stop-color="#F9FBFF"/>
<stop offset="0.562383" stop-color="#01FCDF" stop-opacity="0.989333"/>
<stop offset="0.992535" stop-color="white"/>
</radialGradient>
<radialGradient id="paint47_radial_167_874" cx="0" cy="0" r="1" gradientUnits="userSpaceOnUse" gradientTransform="translate(251 158) rotate(-82.875) scale(4.03113)">
<stop stop-color="#161920"/>
<stop offset="0.15625" stop-color="#161920"/>
<stop offset="0.375" stop-color="#1E232E" stop-opacity="0.78"/>
<stop offset="0.546875" stop-color="#22356F" stop-opacity="0.6"/>
<stop offset="0.734375" stop-color="#1097BB" stop-opacity="0.68"/>
<stop offset="0.890625" stop-color="#00FFE0"/>
<stop offset="1" stop-color="white"/>
</radialGradient>
</defs>
</svg>
