<svg width="31" height="30" viewBox="0 0 31 30" fill="none" xmlns="http://www.w3.org/2000/svg">
<path d="M6.7403 12.6385C9.07656 17.23 12.8405 20.9777 17.432 23.3302L21.0013 19.7609C21.4393 19.3229 22.0883 19.1768 22.6561 19.3715C24.4732 19.9718 26.4363 20.2963 28.4481 20.2963C29.3404 20.2963 30.0705 21.0264 30.0705 21.9187V27.5809C30.0705 28.4732 29.3404 29.2033 28.4481 29.2033C13.2137 29.2033 0.867188 16.8568 0.867188 1.62241C0.867188 0.730083 1.59727 0 2.48959 0H8.16802C9.06034 0 9.79042 0.730083 9.79042 1.62241C9.79042 3.65041 10.1149 5.5973 10.7152 7.4144C10.8937 7.98224 10.7639 8.61498 10.3096 9.06925L6.7403 12.6385Z" fill="white"/>
</svg>
