<svg width="1920" height="1421" viewBox="0 0 1920 1421" fill="none" xmlns="http://www.w3.org/2000/svg">
<mask id="mask0_544_2" style="mask-type:alpha" maskUnits="userSpaceOnUse" x="31" y="0" width="1890" height="739">
<rect x="31.4922" width="1889.51" height="739" fill="url(#paint0_linear_544_2)"/>
</mask>
<g mask="url(#mask0_544_2)">
<rect x="31.4922" width="1889.51" height="739" fill="url(#paint1_radial_544_2)"/>
<ellipse rx="5" ry="4.92059" transform="matrix(-4.30172e-08 1 1 4.44168e-08 596.374 92.5)" fill="white"/>
<ellipse rx="5" ry="4.92059" transform="matrix(-4.30172e-08 1 1 4.44168e-08 308.03 377.5)" fill="white"/>
<ellipse rx="5" ry="4.92059" transform="matrix(-4.30172e-08 1 1 4.44168e-08 308.03 102.5)" fill="white"/>
<ellipse rx="5" ry="4.92059" transform="matrix(-4.30172e-08 1 1 4.44168e-08 308.03 102.5)" fill="url(#paint2_linear_544_2)"/>
<ellipse rx="5" ry="4.92059" transform="matrix(-4.30172e-08 1 1 4.44168e-08 353.303 518.5)" fill="#145D79"/>
<g opacity="0.1" filter="url(#filter0_f_544_2)">
<path d="M203.711 501.7L213.899 502.748L214.93 513.1L215.961 502.748L226.149 501.7L215.961 500.652L214.93 490.3L213.899 500.652L203.711 501.7Z" fill="#C4C4C4"/>
<path d="M203.711 501.7L213.899 502.748L214.93 513.1L215.961 502.748L226.149 501.7L215.961 500.652L214.93 490.3L213.899 500.652L203.711 501.7Z" fill="url(#paint3_diamond_544_2)"/>
<g opacity="0.17" filter="url(#filter1_f_544_2)">
<path d="M194.852 502L212.278 503.793L214.042 521.5L215.806 503.793L233.232 502L215.806 500.207L214.042 482.5L212.278 500.207L194.852 502Z" fill="url(#paint4_diamond_544_2)"/>
</g>
<g filter="url(#filter2_f_544_2)">
<path d="M203.117 501.4L213.573 502.476L214.631 513.1L215.69 502.476L226.146 501.4L215.69 500.325L214.631 489.7L213.573 500.325L203.117 501.4Z" fill="url(#paint5_diamond_544_2)"/>
</g>
</g>
<g opacity="0.1">
<path d="M92.8828 105.854L97.846 106.364L98.3485 111.407L98.8509 106.364L103.814 105.854L98.8509 105.343L98.3485 100.3L97.846 105.343L92.8828 105.854Z" fill="#C4C4C4"/>
<path d="M92.8828 105.854L97.846 106.364L98.3485 111.407L98.8509 106.364L103.814 105.854L98.8509 105.343L98.3485 100.3L97.846 105.343L92.8828 105.854Z" fill="url(#paint6_diamond_544_2)"/>
<g opacity="0.17" filter="url(#filter3_f_544_2)">
<path d="M88.5703 106L97.06 106.873L97.9194 115.5L98.7788 106.873L107.269 106L98.7788 105.127L97.9194 96.5L97.06 105.127L88.5703 106Z" fill="url(#paint7_diamond_544_2)"/>
</g>
<g filter="url(#filter4_f_544_2)">
<path d="M92.6016 105.708L97.6954 106.232L98.211 111.408L98.7267 106.232L103.821 105.708L98.7267 105.184L98.211 100.008L97.6954 105.184L92.6016 105.708Z" fill="url(#paint8_diamond_544_2)"/>
</g>
</g>
<path d="M146.102 400.885L150.02 401.288L150.417 405.269L150.813 401.288L154.732 400.885L150.813 400.482L150.417 396.5L150.02 400.482L146.102 400.885Z" fill="#C4C4C4"/>
<path d="M146.102 400.885L150.02 401.288L150.417 405.269L150.813 401.288L154.732 400.885L150.813 400.482L150.417 396.5L150.02 400.482L146.102 400.885Z" fill="url(#paint9_diamond_544_2)"/>
<g opacity="0.17" filter="url(#filter5_f_544_2)">
<path d="M142.695 401L149.398 401.689L150.076 408.5L150.755 401.689L157.457 401L150.755 400.311L150.076 393.5L149.398 400.311L142.695 401Z" fill="url(#paint10_diamond_544_2)"/>
</g>
<g filter="url(#filter6_f_544_2)">
<path d="M145.875 400.77L149.896 401.183L150.304 405.27L150.711 401.183L154.732 400.77L150.711 400.356L150.304 396.27L149.896 400.356L145.875 400.77Z" fill="url(#paint11_diamond_544_2)"/>
</g>
<g opacity="0.1">
<path d="M192.969 223.731L202.112 224.671L203.037 233.962L203.963 224.671L213.105 223.731L203.963 222.79L203.037 213.5L202.112 222.79L192.969 223.731Z" fill="#C4C4C4"/>
<path d="M192.969 223.731L202.112 224.671L203.037 233.962L203.963 224.671L213.105 223.731L203.963 222.79L203.037 213.5L202.112 222.79L192.969 223.731Z" fill="url(#paint12_diamond_544_2)"/>
<g opacity="0.17" filter="url(#filter7_f_544_2)">
<path d="M185.016 224L200.655 225.609L202.238 241.5L203.821 225.609L219.46 224L203.821 222.391L202.238 206.5L200.655 222.391L185.016 224Z" fill="url(#paint13_diamond_544_2)"/>
</g>
<g filter="url(#filter8_f_544_2)">
<path d="M192.437 223.462L201.821 224.428L202.771 233.962L203.721 224.428L213.104 223.462L203.721 222.497L202.771 212.962L201.821 222.497L192.437 223.462Z" fill="url(#paint14_diamond_544_2)"/>
</g>
</g>
<g opacity="0.05">
<path d="M243.078 580.3L249.87 580.998L250.557 587.9L251.245 580.998L258.037 580.3L251.245 579.601L250.557 572.7L249.87 579.601L243.078 580.3Z" fill="#C4C4C4"/>
<path d="M243.078 580.3L249.87 580.998L250.557 587.9L251.245 580.998L258.037 580.3L251.245 579.601L250.557 572.7L249.87 579.601L243.078 580.3Z" fill="url(#paint15_diamond_544_2)"/>
<g opacity="0.17" filter="url(#filter9_f_544_2)">
<path d="M237.172 580.5L248.789 581.695L249.965 593.5L251.141 581.695L262.759 580.5L251.141 579.305L249.965 567.5L248.789 579.305L237.172 580.5Z" fill="url(#paint16_diamond_544_2)"/>
</g>
<g filter="url(#filter10_f_544_2)">
<path d="M242.687 580.1L249.658 580.817L250.364 587.9L251.069 580.817L258.04 580.1L251.069 579.383L250.364 572.3L249.658 579.383L242.687 580.1Z" fill="url(#paint17_diamond_544_2)"/>
</g>
</g>
<g filter="url(#filter11_f_544_2)">
<ellipse rx="5" ry="4.92059" transform="matrix(-4.30172e-08 1 1 4.44168e-08 1005.78 254.5)" fill="#05D4C7" fill-opacity="0.4"/>
</g>
<ellipse rx="5" ry="4.92059" transform="matrix(-4.30172e-08 1 1 4.44168e-08 717.428 540.5)" fill="#05D4C7" fill-opacity="0.4"/>
<g opacity="0.39" filter="url(#filter12_f_544_2)">
<ellipse rx="5" ry="4.92059" transform="matrix(-4.30172e-08 1 1 4.44168e-08 717.428 265.5)" fill="url(#paint18_linear_544_2)"/>
</g>
<ellipse rx="5" ry="4.92059" transform="matrix(-4.30172e-08 1 1 4.44168e-08 762.702 681.5)" fill="#145D79"/>
<g opacity="0.1" filter="url(#filter13_f_544_2)">
<path d="M613.117 664.7L623.305 665.748L624.336 676.1L625.367 665.748L635.555 664.7L625.367 663.652L624.336 653.3L623.305 663.652L613.117 664.7Z" fill="#C4C4C4"/>
<path d="M613.117 664.7L623.305 665.748L624.336 676.1L625.367 665.748L635.555 664.7L625.367 663.652L624.336 653.3L623.305 663.652L613.117 664.7Z" fill="url(#paint19_diamond_544_2)"/>
<g opacity="0.17" filter="url(#filter14_f_544_2)">
<path d="M604.258 665L621.684 666.793L623.448 684.5L625.212 666.793L642.638 665L625.212 663.207L623.448 645.5L621.684 663.207L604.258 665Z" fill="url(#paint20_diamond_544_2)"/>
</g>
<g filter="url(#filter15_f_544_2)">
<path d="M612.523 664.4L622.979 665.476L624.038 676.1L625.096 665.476L635.552 664.4L625.096 663.325L624.038 652.7L622.979 663.325L612.523 664.4Z" fill="url(#paint21_diamond_544_2)"/>
</g>
</g>
<g opacity="0.1">
<path d="M502.289 268.854L507.252 269.364L507.755 274.407L508.257 269.364L513.22 268.854L508.257 268.343L507.755 263.3L507.252 268.343L502.289 268.854Z" fill="#C4C4C4"/>
<path d="M502.289 268.854L507.252 269.364L507.755 274.407L508.257 269.364L513.22 268.854L508.257 268.343L507.755 263.3L507.252 268.343L502.289 268.854Z" fill="url(#paint22_diamond_544_2)"/>
<g opacity="0.17" filter="url(#filter16_f_544_2)">
<path d="M497.977 269L506.466 269.873L507.326 278.5L508.185 269.873L516.675 269L508.185 268.127L507.326 259.5L506.466 268.127L497.977 269Z" fill="url(#paint23_diamond_544_2)"/>
</g>
<g filter="url(#filter17_f_544_2)">
<path d="M502.008 268.708L507.102 269.232L507.617 274.408L508.133 269.232L513.227 268.708L508.133 268.184L507.617 263.008L507.102 268.184L502.008 268.708Z" fill="url(#paint24_diamond_544_2)"/>
</g>
</g>
<path d="M555.5 563.885L559.418 564.288L559.815 568.269L560.212 564.288L564.13 563.885L560.212 563.482L559.815 559.5L559.418 563.482L555.5 563.885Z" fill="#C4C4C4"/>
<path d="M555.5 563.885L559.418 564.288L559.815 568.269L560.212 564.288L564.13 563.885L560.212 563.482L559.815 559.5L559.418 563.482L555.5 563.885Z" fill="url(#paint25_diamond_544_2)"/>
<g opacity="0.17" filter="url(#filter18_f_544_2)">
<path d="M552.094 564L558.796 564.689L559.475 571.5L560.153 564.689L566.856 564L560.153 563.311L559.475 556.5L558.796 563.311L552.094 564Z" fill="url(#paint26_diamond_544_2)"/>
</g>
<g filter="url(#filter19_f_544_2)">
<path d="M555.273 563.77L559.295 564.183L559.702 568.27L560.109 564.183L564.131 563.77L560.109 563.356L559.702 559.27L559.295 563.356L555.273 563.77Z" fill="url(#paint27_diamond_544_2)"/>
</g>
<g opacity="0.1">
<path d="M602.375 386.731L611.518 387.671L612.443 396.962L613.369 387.671L622.512 386.731L613.369 385.79L612.443 376.5L611.518 385.79L602.375 386.731Z" fill="#C4C4C4"/>
<path d="M602.375 386.731L611.518 387.671L612.443 396.962L613.369 387.671L622.512 386.731L613.369 385.79L612.443 376.5L611.518 385.79L602.375 386.731Z" fill="url(#paint28_diamond_544_2)"/>
<g opacity="0.17" filter="url(#filter20_f_544_2)">
<path d="M594.422 387L610.061 388.609L611.644 404.5L613.227 388.609L628.866 387L613.227 385.391L611.644 369.5L610.061 385.391L594.422 387Z" fill="url(#paint29_diamond_544_2)"/>
</g>
<g filter="url(#filter21_f_544_2)">
<path d="M601.844 386.462L611.227 387.428L612.177 396.962L613.127 387.428L622.51 386.462L613.127 385.497L612.177 375.962L611.227 385.497L601.844 386.462Z" fill="url(#paint30_diamond_544_2)"/>
</g>
</g>
<g opacity="0.05">
<path d="M652.484 743.3L659.276 743.998L659.964 750.9L660.651 743.998L667.443 743.3L660.651 742.601L659.964 735.7L659.276 742.601L652.484 743.3Z" fill="#C4C4C4"/>
<path d="M652.484 743.3L659.276 743.998L659.964 750.9L660.651 743.998L667.443 743.3L660.651 742.601L659.964 735.7L659.276 742.601L652.484 743.3Z" fill="url(#paint31_diamond_544_2)"/>
<g opacity="0.17" filter="url(#filter22_f_544_2)">
<path d="M646.578 743.5L658.196 744.695L659.372 756.5L660.548 744.695L672.165 743.5L660.548 742.305L659.372 730.5L658.196 742.305L646.578 743.5Z" fill="url(#paint32_diamond_544_2)"/>
</g>
<g filter="url(#filter23_f_544_2)">
<path d="M652.094 743.1L659.064 743.817L659.77 750.9L660.475 743.817L667.446 743.1L660.475 742.383L659.77 735.3L659.064 742.383L652.094 743.1Z" fill="url(#paint33_diamond_544_2)"/>
</g>
</g>
<ellipse rx="5" ry="4.92059" transform="matrix(-4.30172e-08 1 1 4.44168e-08 1623.8 209.5)" fill="#05D4C7" fill-opacity="0.4"/>
<ellipse rx="5" ry="4.92059" transform="matrix(-4.30172e-08 1 1 4.44168e-08 1669.07 350.5)" fill="#145D79"/>
<g opacity="0.1" filter="url(#filter24_f_544_2)">
<path d="M1519.48 333.7L1529.67 334.748L1530.7 345.1L1531.73 334.748L1541.92 333.7L1531.73 332.652L1530.7 322.3L1529.67 332.652L1519.48 333.7Z" fill="#C4C4C4"/>
<path d="M1519.48 333.7L1529.67 334.748L1530.7 345.1L1531.73 334.748L1541.92 333.7L1531.73 332.652L1530.7 322.3L1529.67 332.652L1519.48 333.7Z" fill="url(#paint34_diamond_544_2)"/>
<g opacity="0.17" filter="url(#filter25_f_544_2)">
<path d="M1510.62 334L1528.05 335.793L1529.82 353.5L1531.58 335.793L1549.01 334L1531.58 332.207L1529.82 314.5L1528.05 332.207L1510.62 334Z" fill="url(#paint35_diamond_544_2)"/>
</g>
<g filter="url(#filter26_f_544_2)">
<path d="M1518.89 333.4L1529.35 334.476L1530.4 345.1L1531.46 334.476L1541.92 333.4L1531.46 332.325L1530.4 321.7L1529.35 332.325L1518.89 333.4Z" fill="url(#paint36_diamond_544_2)"/>
</g>
</g>
<path d="M1461.87 232.885L1465.79 233.288L1466.19 237.269L1466.59 233.288L1470.5 232.885L1466.59 232.482L1466.19 228.5L1465.79 232.482L1461.87 232.885Z" fill="#C4C4C4"/>
<path d="M1461.87 232.885L1465.79 233.288L1466.19 237.269L1466.59 233.288L1470.5 232.885L1466.59 232.482L1466.19 228.5L1465.79 232.482L1461.87 232.885Z" fill="url(#paint37_diamond_544_2)"/>
<g opacity="0.17" filter="url(#filter27_f_544_2)">
<path d="M1458.47 233L1465.17 233.689L1465.85 240.5L1466.53 233.689L1473.23 233L1466.53 232.311L1465.85 225.5L1465.17 232.311L1458.47 233Z" fill="url(#paint38_diamond_544_2)"/>
</g>
<g filter="url(#filter28_f_544_2)">
<path d="M1461.65 232.77L1465.67 233.183L1466.08 237.27L1466.48 233.183L1470.51 232.77L1466.48 232.356L1466.08 228.27L1465.67 232.356L1461.65 232.77Z" fill="url(#paint39_diamond_544_2)"/>
</g>
<g opacity="0.1">
<path d="M1508.74 55.7308L1517.88 56.6712L1518.81 65.9615L1519.74 56.6712L1528.88 55.7308L1519.74 54.7903L1518.81 45.5L1517.88 54.7903L1508.74 55.7308Z" fill="#C4C4C4"/>
<path d="M1508.74 55.7308L1517.88 56.6712L1518.81 65.9615L1519.74 56.6712L1528.88 55.7308L1519.74 54.7903L1518.81 45.5L1517.88 54.7903L1508.74 55.7308Z" fill="url(#paint40_diamond_544_2)"/>
<g opacity="0.17" filter="url(#filter29_f_544_2)">
<path d="M1500.79 56L1516.43 57.6087L1518.01 73.5L1519.59 57.6087L1535.23 56L1519.59 54.3913L1518.01 38.5L1516.43 54.3913L1500.79 56Z" fill="url(#paint41_diamond_544_2)"/>
</g>
<g filter="url(#filter30_f_544_2)">
<path d="M1508.21 55.4624L1517.59 56.4276L1518.54 65.9624L1519.49 56.4276L1528.88 55.4624L1519.49 54.4972L1518.54 44.9624L1517.59 54.4972L1508.21 55.4624Z" fill="url(#paint42_diamond_544_2)"/>
</g>
</g>
<g opacity="0.05">
<path d="M1558.85 412.3L1565.64 412.998L1566.33 419.9L1567.02 412.998L1573.81 412.3L1567.02 411.601L1566.33 404.7L1565.64 411.601L1558.85 412.3Z" fill="#C4C4C4"/>
<path d="M1558.85 412.3L1565.64 412.998L1566.33 419.9L1567.02 412.998L1573.81 412.3L1567.02 411.601L1566.33 404.7L1565.64 411.601L1558.85 412.3Z" fill="url(#paint43_diamond_544_2)"/>
<g opacity="0.17" filter="url(#filter31_f_544_2)">
<path d="M1552.95 412.5L1564.56 413.695L1565.74 425.5L1566.91 413.695L1578.53 412.5L1566.91 411.305L1565.74 399.5L1564.56 411.305L1552.95 412.5Z" fill="url(#paint44_diamond_544_2)"/>
</g>
<g filter="url(#filter32_f_544_2)">
<path d="M1558.46 412.1L1565.43 412.817L1566.14 419.9L1566.84 412.817L1573.81 412.1L1566.84 411.383L1566.14 404.3L1565.43 411.383L1558.46 412.1Z" fill="url(#paint45_diamond_544_2)"/>
</g>
</g>
<g opacity="0.39" filter="url(#filter33_f_544_2)">
<ellipse rx="14.2802" ry="14.0534" transform="matrix(-4.30172e-08 1 1 4.44168e-08 1342.24 228.862)" fill="url(#paint46_linear_544_2)"/>
</g>
<g opacity="0.1">
<path d="M727.781 238.439L741.956 239.897L743.391 254.301L744.826 239.897L759.002 238.439L744.826 236.981L743.391 222.577L741.956 236.981L727.781 238.439Z" fill="#C4C4C4"/>
<path d="M727.781 238.439L741.956 239.897L743.391 254.301L744.826 239.897L759.002 238.439L744.826 236.981L743.391 222.577L741.956 236.981L727.781 238.439Z" fill="url(#paint47_diamond_544_2)"/>
<g opacity="0.17" filter="url(#filter34_f_544_2)">
<path d="M715.461 238.858L739.708 241.352L742.162 265.99L744.617 241.352L768.864 238.858L744.617 236.363L742.162 211.725L739.708 236.363L715.461 238.858Z" fill="url(#paint48_diamond_544_2)"/>
</g>
<g filter="url(#filter35_f_544_2)">
<path d="M726.961 238.023L741.509 239.52L742.982 254.303L744.455 239.52L759.003 238.023L744.455 236.527L742.982 221.744L741.509 236.527L726.961 238.023Z" fill="url(#paint49_diamond_544_2)"/>
</g>
</g>
</g>
<rect y="344" width="1920" height="1077" fill="url(#paint50_radial_544_2)" fill-opacity="0.4"/>
<defs>
<filter id="filter0_f_544_2" x="190.852" y="478.5" width="46.3828" height="47" filterUnits="userSpaceOnUse" color-interpolation-filters="sRGB">
<feFlood flood-opacity="0" result="BackgroundImageFix"/>
<feBlend mode="normal" in="SourceGraphic" in2="BackgroundImageFix" result="shape"/>
<feGaussianBlur stdDeviation="2" result="effect1_foregroundBlur_544_2"/>
</filter>
<filter id="filter1_f_544_2" x="189.852" y="477.5" width="48.3828" height="49" filterUnits="userSpaceOnUse" color-interpolation-filters="sRGB">
<feFlood flood-opacity="0" result="BackgroundImageFix"/>
<feBlend mode="normal" in="SourceGraphic" in2="BackgroundImageFix" result="shape"/>
<feGaussianBlur stdDeviation="2.5" result="effect1_foregroundBlur_544_2"/>
</filter>
<filter id="filter2_f_544_2" x="198.117" y="484.7" width="33.0312" height="33.3999" filterUnits="userSpaceOnUse" color-interpolation-filters="sRGB">
<feFlood flood-opacity="0" result="BackgroundImageFix"/>
<feBlend mode="normal" in="SourceGraphic" in2="BackgroundImageFix" result="shape"/>
<feGaussianBlur stdDeviation="2.5" result="effect1_foregroundBlur_544_2"/>
</filter>
<filter id="filter3_f_544_2" x="83.5703" y="91.5" width="28.6953" height="29" filterUnits="userSpaceOnUse" color-interpolation-filters="sRGB">
<feFlood flood-opacity="0" result="BackgroundImageFix"/>
<feBlend mode="normal" in="SourceGraphic" in2="BackgroundImageFix" result="shape"/>
<feGaussianBlur stdDeviation="2.5" result="effect1_foregroundBlur_544_2"/>
</filter>
<filter id="filter4_f_544_2" x="87.6016" y="95.0078" width="21.2188" height="21.3999" filterUnits="userSpaceOnUse" color-interpolation-filters="sRGB">
<feFlood flood-opacity="0" result="BackgroundImageFix"/>
<feBlend mode="normal" in="SourceGraphic" in2="BackgroundImageFix" result="shape"/>
<feGaussianBlur stdDeviation="2.5" result="effect1_foregroundBlur_544_2"/>
</filter>
<filter id="filter5_f_544_2" x="137.695" y="388.5" width="24.7656" height="25" filterUnits="userSpaceOnUse" color-interpolation-filters="sRGB">
<feFlood flood-opacity="0" result="BackgroundImageFix"/>
<feBlend mode="normal" in="SourceGraphic" in2="BackgroundImageFix" result="shape"/>
<feGaussianBlur stdDeviation="2.5" result="effect1_foregroundBlur_544_2"/>
</filter>
<filter id="filter6_f_544_2" x="140.875" y="391.27" width="18.8594" height="19" filterUnits="userSpaceOnUse" color-interpolation-filters="sRGB">
<feFlood flood-opacity="0" result="BackgroundImageFix"/>
<feBlend mode="normal" in="SourceGraphic" in2="BackgroundImageFix" result="shape"/>
<feGaussianBlur stdDeviation="2.5" result="effect1_foregroundBlur_544_2"/>
</filter>
<filter id="filter7_f_544_2" x="180.016" y="201.5" width="44.4453" height="45" filterUnits="userSpaceOnUse" color-interpolation-filters="sRGB">
<feFlood flood-opacity="0" result="BackgroundImageFix"/>
<feBlend mode="normal" in="SourceGraphic" in2="BackgroundImageFix" result="shape"/>
<feGaussianBlur stdDeviation="2.5" result="effect1_foregroundBlur_544_2"/>
</filter>
<filter id="filter8_f_544_2" x="187.438" y="207.962" width="30.6641" height="31" filterUnits="userSpaceOnUse" color-interpolation-filters="sRGB">
<feFlood flood-opacity="0" result="BackgroundImageFix"/>
<feBlend mode="normal" in="SourceGraphic" in2="BackgroundImageFix" result="shape"/>
<feGaussianBlur stdDeviation="2.5" result="effect1_foregroundBlur_544_2"/>
</filter>
<filter id="filter9_f_544_2" x="232.172" y="562.5" width="35.5859" height="36" filterUnits="userSpaceOnUse" color-interpolation-filters="sRGB">
<feFlood flood-opacity="0" result="BackgroundImageFix"/>
<feBlend mode="normal" in="SourceGraphic" in2="BackgroundImageFix" result="shape"/>
<feGaussianBlur stdDeviation="2.5" result="effect1_foregroundBlur_544_2"/>
</filter>
<filter id="filter10_f_544_2" x="237.688" y="567.3" width="25.3516" height="25.6001" filterUnits="userSpaceOnUse" color-interpolation-filters="sRGB">
<feFlood flood-opacity="0" result="BackgroundImageFix"/>
<feBlend mode="normal" in="SourceGraphic" in2="BackgroundImageFix" result="shape"/>
<feGaussianBlur stdDeviation="2.5" result="effect1_foregroundBlur_544_2"/>
</filter>
<filter id="filter11_f_544_2" x="996.859" y="245.5" width="17.8438" height="18" filterUnits="userSpaceOnUse" color-interpolation-filters="sRGB">
<feFlood flood-opacity="0" result="BackgroundImageFix"/>
<feBlend mode="normal" in="SourceGraphic" in2="BackgroundImageFix" result="shape"/>
<feGaussianBlur stdDeviation="2" result="effect1_foregroundBlur_544_2"/>
</filter>
<filter id="filter12_f_544_2" x="707.508" y="255.5" width="19.8438" height="20" filterUnits="userSpaceOnUse" color-interpolation-filters="sRGB">
<feFlood flood-opacity="0" result="BackgroundImageFix"/>
<feBlend mode="normal" in="SourceGraphic" in2="BackgroundImageFix" result="shape"/>
<feGaussianBlur stdDeviation="2.5" result="effect1_foregroundBlur_544_2"/>
</filter>
<filter id="filter13_f_544_2" x="600.258" y="641.5" width="46.3828" height="47" filterUnits="userSpaceOnUse" color-interpolation-filters="sRGB">
<feFlood flood-opacity="0" result="BackgroundImageFix"/>
<feBlend mode="normal" in="SourceGraphic" in2="BackgroundImageFix" result="shape"/>
<feGaussianBlur stdDeviation="2" result="effect1_foregroundBlur_544_2"/>
</filter>
<filter id="filter14_f_544_2" x="599.258" y="640.5" width="48.3828" height="49" filterUnits="userSpaceOnUse" color-interpolation-filters="sRGB">
<feFlood flood-opacity="0" result="BackgroundImageFix"/>
<feBlend mode="normal" in="SourceGraphic" in2="BackgroundImageFix" result="shape"/>
<feGaussianBlur stdDeviation="2.5" result="effect1_foregroundBlur_544_2"/>
</filter>
<filter id="filter15_f_544_2" x="607.523" y="647.7" width="33.0312" height="33.3999" filterUnits="userSpaceOnUse" color-interpolation-filters="sRGB">
<feFlood flood-opacity="0" result="BackgroundImageFix"/>
<feBlend mode="normal" in="SourceGraphic" in2="BackgroundImageFix" result="shape"/>
<feGaussianBlur stdDeviation="2.5" result="effect1_foregroundBlur_544_2"/>
</filter>
<filter id="filter16_f_544_2" x="492.977" y="254.5" width="28.6953" height="29" filterUnits="userSpaceOnUse" color-interpolation-filters="sRGB">
<feFlood flood-opacity="0" result="BackgroundImageFix"/>
<feBlend mode="normal" in="SourceGraphic" in2="BackgroundImageFix" result="shape"/>
<feGaussianBlur stdDeviation="2.5" result="effect1_foregroundBlur_544_2"/>
</filter>
<filter id="filter17_f_544_2" x="497.008" y="258.008" width="21.2188" height="21.3999" filterUnits="userSpaceOnUse" color-interpolation-filters="sRGB">
<feFlood flood-opacity="0" result="BackgroundImageFix"/>
<feBlend mode="normal" in="SourceGraphic" in2="BackgroundImageFix" result="shape"/>
<feGaussianBlur stdDeviation="2.5" result="effect1_foregroundBlur_544_2"/>
</filter>
<filter id="filter18_f_544_2" x="547.094" y="551.5" width="24.7656" height="25" filterUnits="userSpaceOnUse" color-interpolation-filters="sRGB">
<feFlood flood-opacity="0" result="BackgroundImageFix"/>
<feBlend mode="normal" in="SourceGraphic" in2="BackgroundImageFix" result="shape"/>
<feGaussianBlur stdDeviation="2.5" result="effect1_foregroundBlur_544_2"/>
</filter>
<filter id="filter19_f_544_2" x="550.273" y="554.27" width="18.8594" height="19" filterUnits="userSpaceOnUse" color-interpolation-filters="sRGB">
<feFlood flood-opacity="0" result="BackgroundImageFix"/>
<feBlend mode="normal" in="SourceGraphic" in2="BackgroundImageFix" result="shape"/>
<feGaussianBlur stdDeviation="2.5" result="effect1_foregroundBlur_544_2"/>
</filter>
<filter id="filter20_f_544_2" x="589.422" y="364.5" width="44.4453" height="45" filterUnits="userSpaceOnUse" color-interpolation-filters="sRGB">
<feFlood flood-opacity="0" result="BackgroundImageFix"/>
<feBlend mode="normal" in="SourceGraphic" in2="BackgroundImageFix" result="shape"/>
<feGaussianBlur stdDeviation="2.5" result="effect1_foregroundBlur_544_2"/>
</filter>
<filter id="filter21_f_544_2" x="596.844" y="370.962" width="30.6641" height="31" filterUnits="userSpaceOnUse" color-interpolation-filters="sRGB">
<feFlood flood-opacity="0" result="BackgroundImageFix"/>
<feBlend mode="normal" in="SourceGraphic" in2="BackgroundImageFix" result="shape"/>
<feGaussianBlur stdDeviation="2.5" result="effect1_foregroundBlur_544_2"/>
</filter>
<filter id="filter22_f_544_2" x="641.578" y="725.5" width="35.5859" height="36" filterUnits="userSpaceOnUse" color-interpolation-filters="sRGB">
<feFlood flood-opacity="0" result="BackgroundImageFix"/>
<feBlend mode="normal" in="SourceGraphic" in2="BackgroundImageFix" result="shape"/>
<feGaussianBlur stdDeviation="2.5" result="effect1_foregroundBlur_544_2"/>
</filter>
<filter id="filter23_f_544_2" x="647.094" y="730.3" width="25.3516" height="25.6001" filterUnits="userSpaceOnUse" color-interpolation-filters="sRGB">
<feFlood flood-opacity="0" result="BackgroundImageFix"/>
<feBlend mode="normal" in="SourceGraphic" in2="BackgroundImageFix" result="shape"/>
<feGaussianBlur stdDeviation="2.5" result="effect1_foregroundBlur_544_2"/>
</filter>
<filter id="filter24_f_544_2" x="1506.62" y="310.5" width="46.3828" height="47" filterUnits="userSpaceOnUse" color-interpolation-filters="sRGB">
<feFlood flood-opacity="0" result="BackgroundImageFix"/>
<feBlend mode="normal" in="SourceGraphic" in2="BackgroundImageFix" result="shape"/>
<feGaussianBlur stdDeviation="2" result="effect1_foregroundBlur_544_2"/>
</filter>
<filter id="filter25_f_544_2" x="1505.62" y="309.5" width="48.3828" height="49" filterUnits="userSpaceOnUse" color-interpolation-filters="sRGB">
<feFlood flood-opacity="0" result="BackgroundImageFix"/>
<feBlend mode="normal" in="SourceGraphic" in2="BackgroundImageFix" result="shape"/>
<feGaussianBlur stdDeviation="2.5" result="effect1_foregroundBlur_544_2"/>
</filter>
<filter id="filter26_f_544_2" x="1513.89" y="316.7" width="33.0312" height="33.3999" filterUnits="userSpaceOnUse" color-interpolation-filters="sRGB">
<feFlood flood-opacity="0" result="BackgroundImageFix"/>
<feBlend mode="normal" in="SourceGraphic" in2="BackgroundImageFix" result="shape"/>
<feGaussianBlur stdDeviation="2.5" result="effect1_foregroundBlur_544_2"/>
</filter>
<filter id="filter27_f_544_2" x="1453.47" y="220.5" width="24.7656" height="25" filterUnits="userSpaceOnUse" color-interpolation-filters="sRGB">
<feFlood flood-opacity="0" result="BackgroundImageFix"/>
<feBlend mode="normal" in="SourceGraphic" in2="BackgroundImageFix" result="shape"/>
<feGaussianBlur stdDeviation="2.5" result="effect1_foregroundBlur_544_2"/>
</filter>
<filter id="filter28_f_544_2" x="1456.65" y="223.27" width="18.8594" height="19" filterUnits="userSpaceOnUse" color-interpolation-filters="sRGB">
<feFlood flood-opacity="0" result="BackgroundImageFix"/>
<feBlend mode="normal" in="SourceGraphic" in2="BackgroundImageFix" result="shape"/>
<feGaussianBlur stdDeviation="2.5" result="effect1_foregroundBlur_544_2"/>
</filter>
<filter id="filter29_f_544_2" x="1495.79" y="33.5" width="44.4453" height="45" filterUnits="userSpaceOnUse" color-interpolation-filters="sRGB">
<feFlood flood-opacity="0" result="BackgroundImageFix"/>
<feBlend mode="normal" in="SourceGraphic" in2="BackgroundImageFix" result="shape"/>
<feGaussianBlur stdDeviation="2.5" result="effect1_foregroundBlur_544_2"/>
</filter>
<filter id="filter30_f_544_2" x="1503.21" y="39.9624" width="30.6641" height="31" filterUnits="userSpaceOnUse" color-interpolation-filters="sRGB">
<feFlood flood-opacity="0" result="BackgroundImageFix"/>
<feBlend mode="normal" in="SourceGraphic" in2="BackgroundImageFix" result="shape"/>
<feGaussianBlur stdDeviation="2.5" result="effect1_foregroundBlur_544_2"/>
</filter>
<filter id="filter31_f_544_2" x="1547.95" y="394.5" width="35.5859" height="36" filterUnits="userSpaceOnUse" color-interpolation-filters="sRGB">
<feFlood flood-opacity="0" result="BackgroundImageFix"/>
<feBlend mode="normal" in="SourceGraphic" in2="BackgroundImageFix" result="shape"/>
<feGaussianBlur stdDeviation="2.5" result="effect1_foregroundBlur_544_2"/>
</filter>
<filter id="filter32_f_544_2" x="1553.46" y="399.3" width="25.3516" height="25.6001" filterUnits="userSpaceOnUse" color-interpolation-filters="sRGB">
<feFlood flood-opacity="0" result="BackgroundImageFix"/>
<feBlend mode="normal" in="SourceGraphic" in2="BackgroundImageFix" result="shape"/>
<feGaussianBlur stdDeviation="2.5" result="effect1_foregroundBlur_544_2"/>
</filter>
<filter id="filter33_f_544_2" x="1318.19" y="204.582" width="48.1094" height="48.5605" filterUnits="userSpaceOnUse" color-interpolation-filters="sRGB">
<feFlood flood-opacity="0" result="BackgroundImageFix"/>
<feBlend mode="normal" in="SourceGraphic" in2="BackgroundImageFix" result="shape"/>
<feGaussianBlur stdDeviation="5" result="effect1_foregroundBlur_544_2"/>
</filter>
<filter id="filter34_f_544_2" x="710.461" y="206.725" width="63.4062" height="64.2646" filterUnits="userSpaceOnUse" color-interpolation-filters="sRGB">
<feFlood flood-opacity="0" result="BackgroundImageFix"/>
<feBlend mode="normal" in="SourceGraphic" in2="BackgroundImageFix" result="shape"/>
<feGaussianBlur stdDeviation="2.5" result="effect1_foregroundBlur_544_2"/>
</filter>
<filter id="filter35_f_544_2" x="721.961" y="216.744" width="42.0391" height="42.5591" filterUnits="userSpaceOnUse" color-interpolation-filters="sRGB">
<feFlood flood-opacity="0" result="BackgroundImageFix"/>
<feBlend mode="normal" in="SourceGraphic" in2="BackgroundImageFix" result="shape"/>
<feGaussianBlur stdDeviation="2.5" result="effect1_foregroundBlur_544_2"/>
</filter>
<linearGradient id="paint0_linear_544_2" x1="976.246" y1="417.5" x2="976.246" y2="739" gradientUnits="userSpaceOnUse">
<stop stop-color="#C4C4C4"/>
<stop offset="1" stop-color="#C4C4C4" stop-opacity="0"/>
</linearGradient>
<radialGradient id="paint1_radial_544_2" cx="0" cy="0" r="1" gradientUnits="userSpaceOnUse" gradientTransform="translate(31.4923 -50.5) rotate(22.6768) scale(2047.82 1604.73)">
<stop stop-color="#00FFE0"/>
<stop offset="0.229167" stop-color="#1097BB" stop-opacity="0.68"/>
<stop offset="0.515625" stop-color="#22356F" stop-opacity="0.6"/>
<stop offset="0.796875" stop-color="#1E232E" stop-opacity="0.58"/>
<stop offset="1" stop-color="#161920" stop-opacity="0"/>
</radialGradient>
<linearGradient id="paint2_linear_544_2" x1="-21" y1="4.92059" x2="10" y2="4.92059" gradientUnits="userSpaceOnUse">
<stop stop-color="white"/>
<stop offset="1" stop-color="#1B2337"/>
</linearGradient>
<radialGradient id="paint3_diamond_544_2" cx="0" cy="0" r="1" gradientUnits="userSpaceOnUse" gradientTransform="translate(203.711 501.7) scale(17.7141 15.4605)">
<stop offset="0.119792" stop-color="#F9FBFF"/>
<stop offset="0.536458" stop-color="#D3FFFA"/>
<stop offset="0.992535" stop-color="white"/>
</radialGradient>
<radialGradient id="paint4_diamond_544_2" cx="0" cy="0" r="1" gradientUnits="userSpaceOnUse" gradientTransform="translate(194.852 502) scale(30.3005 26.4455)">
<stop offset="0.119792" stop-color="#F9FBFF"/>
<stop offset="0.536458" stop-color="#D3FFFA"/>
<stop offset="0.992535" stop-color="white"/>
</radialGradient>
<radialGradient id="paint5_diamond_544_2" cx="0" cy="0" r="1" gradientUnits="userSpaceOnUse" gradientTransform="translate(203.117 501.4) scale(18.1803 15.8673)">
<stop offset="0.119792" stop-color="#F9FBFF"/>
<stop offset="0.562383" stop-color="#01FCDF" stop-opacity="0.989333"/>
<stop offset="0.992535" stop-color="white"/>
</radialGradient>
<radialGradient id="paint6_diamond_544_2" cx="0" cy="0" r="1" gradientUnits="userSpaceOnUse" gradientTransform="translate(92.8828 105.854) scale(8.62996 7.53202)">
<stop offset="0.119792" stop-color="#F9FBFF"/>
<stop offset="0.536458" stop-color="#D3FFFA"/>
<stop offset="0.992535" stop-color="white"/>
</radialGradient>
<radialGradient id="paint7_diamond_544_2" cx="0" cy="0" r="1" gradientUnits="userSpaceOnUse" gradientTransform="translate(88.5703 106) scale(14.7618 12.8837)">
<stop offset="0.119792" stop-color="#F9FBFF"/>
<stop offset="0.536458" stop-color="#D3FFFA"/>
<stop offset="0.992535" stop-color="white"/>
</radialGradient>
<radialGradient id="paint8_diamond_544_2" cx="0" cy="0" r="1" gradientUnits="userSpaceOnUse" gradientTransform="translate(92.6016 105.708) scale(8.85707 7.73023)">
<stop offset="0.119792" stop-color="#F9FBFF"/>
<stop offset="0.562383" stop-color="#01FCDF" stop-opacity="0.989333"/>
<stop offset="0.992535" stop-color="white"/>
</radialGradient>
<radialGradient id="paint9_diamond_544_2" cx="0" cy="0" r="1" gradientUnits="userSpaceOnUse" gradientTransform="translate(146.102 400.885) scale(6.81313 5.94633)">
<stop offset="0.119792" stop-color="#F9FBFF"/>
<stop offset="0.536458" stop-color="#D3FFFA"/>
<stop offset="0.992535" stop-color="white"/>
</radialGradient>
<radialGradient id="paint10_diamond_544_2" cx="0" cy="0" r="1" gradientUnits="userSpaceOnUse" gradientTransform="translate(142.695 401) scale(11.654 10.1714)">
<stop offset="0.119792" stop-color="#F9FBFF"/>
<stop offset="0.536458" stop-color="#D3FFFA"/>
<stop offset="0.992535" stop-color="white"/>
</radialGradient>
<radialGradient id="paint11_diamond_544_2" cx="0" cy="0" r="1" gradientUnits="userSpaceOnUse" gradientTransform="translate(145.875 400.77) scale(6.99242 6.10281)">
<stop offset="0.119792" stop-color="#F9FBFF"/>
<stop offset="0.562383" stop-color="#01FCDF" stop-opacity="0.989333"/>
<stop offset="0.992535" stop-color="white"/>
</radialGradient>
<radialGradient id="paint12_diamond_544_2" cx="0" cy="0" r="1" gradientUnits="userSpaceOnUse" gradientTransform="translate(192.969 223.731) scale(15.8973 13.8748)">
<stop offset="0.119792" stop-color="#F9FBFF"/>
<stop offset="0.536458" stop-color="#D3FFFA"/>
<stop offset="0.992535" stop-color="white"/>
</radialGradient>
<radialGradient id="paint13_diamond_544_2" cx="0" cy="0" r="1" gradientUnits="userSpaceOnUse" gradientTransform="translate(185.016 224) scale(27.1928 23.7332)">
<stop offset="0.119792" stop-color="#F9FBFF"/>
<stop offset="0.536458" stop-color="#D3FFFA"/>
<stop offset="0.992535" stop-color="white"/>
</radialGradient>
<radialGradient id="paint14_diamond_544_2" cx="0" cy="0" r="1" gradientUnits="userSpaceOnUse" gradientTransform="translate(192.437 223.462) scale(16.3157 14.2399)">
<stop offset="0.119792" stop-color="#F9FBFF"/>
<stop offset="0.562383" stop-color="#01FCDF" stop-opacity="0.989333"/>
<stop offset="0.992535" stop-color="white"/>
</radialGradient>
<radialGradient id="paint15_diamond_544_2" cx="0" cy="0" r="1" gradientUnits="userSpaceOnUse" gradientTransform="translate(243.078 580.3) scale(11.8094 10.307)">
<stop offset="0.119792" stop-color="#F9FBFF"/>
<stop offset="0.536458" stop-color="#D3FFFA"/>
<stop offset="0.992535" stop-color="white"/>
</radialGradient>
<radialGradient id="paint16_diamond_544_2" cx="0" cy="0" r="1" gradientUnits="userSpaceOnUse" gradientTransform="translate(237.172 580.5) scale(20.2003 17.6303)">
<stop offset="0.119792" stop-color="#F9FBFF"/>
<stop offset="0.536458" stop-color="#D3FFFA"/>
<stop offset="0.992535" stop-color="white"/>
</radialGradient>
<radialGradient id="paint17_diamond_544_2" cx="0" cy="0" r="1" gradientUnits="userSpaceOnUse" gradientTransform="translate(242.687 580.1) scale(12.1202 10.5782)">
<stop offset="0.119792" stop-color="#F9FBFF"/>
<stop offset="0.562383" stop-color="#01FCDF" stop-opacity="0.989333"/>
<stop offset="0.992535" stop-color="white"/>
</radialGradient>
<linearGradient id="paint18_linear_544_2" x1="-21" y1="4.92059" x2="10" y2="4.92059" gradientUnits="userSpaceOnUse">
<stop stop-color="white"/>
<stop offset="1" stop-color="#1B2337"/>
</linearGradient>
<radialGradient id="paint19_diamond_544_2" cx="0" cy="0" r="1" gradientUnits="userSpaceOnUse" gradientTransform="translate(613.117 664.7) scale(17.7141 15.4605)">
<stop offset="0.119792" stop-color="#F9FBFF"/>
<stop offset="0.536458" stop-color="#D3FFFA"/>
<stop offset="0.992535" stop-color="white"/>
</radialGradient>
<radialGradient id="paint20_diamond_544_2" cx="0" cy="0" r="1" gradientUnits="userSpaceOnUse" gradientTransform="translate(604.258 665) scale(30.3005 26.4455)">
<stop offset="0.119792" stop-color="#F9FBFF"/>
<stop offset="0.536458" stop-color="#D3FFFA"/>
<stop offset="0.992535" stop-color="white"/>
</radialGradient>
<radialGradient id="paint21_diamond_544_2" cx="0" cy="0" r="1" gradientUnits="userSpaceOnUse" gradientTransform="translate(612.523 664.4) scale(18.1803 15.8673)">
<stop offset="0.119792" stop-color="#F9FBFF"/>
<stop offset="0.562383" stop-color="#01FCDF" stop-opacity="0.989333"/>
<stop offset="0.992535" stop-color="white"/>
</radialGradient>
<radialGradient id="paint22_diamond_544_2" cx="0" cy="0" r="1" gradientUnits="userSpaceOnUse" gradientTransform="translate(502.289 268.854) scale(8.62996 7.53202)">
<stop offset="0.119792" stop-color="#F9FBFF"/>
<stop offset="0.536458" stop-color="#D3FFFA"/>
<stop offset="0.992535" stop-color="white"/>
</radialGradient>
<radialGradient id="paint23_diamond_544_2" cx="0" cy="0" r="1" gradientUnits="userSpaceOnUse" gradientTransform="translate(497.977 269) scale(14.7618 12.8837)">
<stop offset="0.119792" stop-color="#F9FBFF"/>
<stop offset="0.536458" stop-color="#D3FFFA"/>
<stop offset="0.992535" stop-color="white"/>
</radialGradient>
<radialGradient id="paint24_diamond_544_2" cx="0" cy="0" r="1" gradientUnits="userSpaceOnUse" gradientTransform="translate(502.008 268.708) scale(8.85707 7.73023)">
<stop offset="0.119792" stop-color="#F9FBFF"/>
<stop offset="0.562383" stop-color="#01FCDF" stop-opacity="0.989333"/>
<stop offset="0.992535" stop-color="white"/>
</radialGradient>
<radialGradient id="paint25_diamond_544_2" cx="0" cy="0" r="1" gradientUnits="userSpaceOnUse" gradientTransform="translate(555.5 563.885) scale(6.81313 5.94633)">
<stop offset="0.119792" stop-color="#F9FBFF"/>
<stop offset="0.536458" stop-color="#D3FFFA"/>
<stop offset="0.992535" stop-color="white"/>
</radialGradient>
<radialGradient id="paint26_diamond_544_2" cx="0" cy="0" r="1" gradientUnits="userSpaceOnUse" gradientTransform="translate(552.094 564) scale(11.654 10.1714)">
<stop offset="0.119792" stop-color="#F9FBFF"/>
<stop offset="0.536458" stop-color="#D3FFFA"/>
<stop offset="0.992535" stop-color="white"/>
</radialGradient>
<radialGradient id="paint27_diamond_544_2" cx="0" cy="0" r="1" gradientUnits="userSpaceOnUse" gradientTransform="translate(555.273 563.77) scale(6.99242 6.10281)">
<stop offset="0.119792" stop-color="#F9FBFF"/>
<stop offset="0.562383" stop-color="#01FCDF" stop-opacity="0.989333"/>
<stop offset="0.992535" stop-color="white"/>
</radialGradient>
<radialGradient id="paint28_diamond_544_2" cx="0" cy="0" r="1" gradientUnits="userSpaceOnUse" gradientTransform="translate(602.375 386.731) scale(15.8973 13.8748)">
<stop offset="0.119792" stop-color="#F9FBFF"/>
<stop offset="0.536458" stop-color="#D3FFFA"/>
<stop offset="0.992535" stop-color="white"/>
</radialGradient>
<radialGradient id="paint29_diamond_544_2" cx="0" cy="0" r="1" gradientUnits="userSpaceOnUse" gradientTransform="translate(594.422 387) scale(27.1928 23.7332)">
<stop offset="0.119792" stop-color="#F9FBFF"/>
<stop offset="0.536458" stop-color="#D3FFFA"/>
<stop offset="0.992535" stop-color="white"/>
</radialGradient>
<radialGradient id="paint30_diamond_544_2" cx="0" cy="0" r="1" gradientUnits="userSpaceOnUse" gradientTransform="translate(601.844 386.462) scale(16.3157 14.2399)">
<stop offset="0.119792" stop-color="#F9FBFF"/>
<stop offset="0.562383" stop-color="#01FCDF" stop-opacity="0.989333"/>
<stop offset="0.992535" stop-color="white"/>
</radialGradient>
<radialGradient id="paint31_diamond_544_2" cx="0" cy="0" r="1" gradientUnits="userSpaceOnUse" gradientTransform="translate(652.484 743.3) scale(11.8094 10.307)">
<stop offset="0.119792" stop-color="#F9FBFF"/>
<stop offset="0.536458" stop-color="#D3FFFA"/>
<stop offset="0.992535" stop-color="white"/>
</radialGradient>
<radialGradient id="paint32_diamond_544_2" cx="0" cy="0" r="1" gradientUnits="userSpaceOnUse" gradientTransform="translate(646.578 743.5) scale(20.2003 17.6303)">
<stop offset="0.119792" stop-color="#F9FBFF"/>
<stop offset="0.536458" stop-color="#D3FFFA"/>
<stop offset="0.992535" stop-color="white"/>
</radialGradient>
<radialGradient id="paint33_diamond_544_2" cx="0" cy="0" r="1" gradientUnits="userSpaceOnUse" gradientTransform="translate(652.094 743.1) scale(12.1202 10.5782)">
<stop offset="0.119792" stop-color="#F9FBFF"/>
<stop offset="0.562383" stop-color="#01FCDF" stop-opacity="0.989333"/>
<stop offset="0.992535" stop-color="white"/>
</radialGradient>
<radialGradient id="paint34_diamond_544_2" cx="0" cy="0" r="1" gradientUnits="userSpaceOnUse" gradientTransform="translate(1519.48 333.7) scale(17.7141 15.4605)">
<stop offset="0.119792" stop-color="#F9FBFF"/>
<stop offset="0.536458" stop-color="#D3FFFA"/>
<stop offset="0.992535" stop-color="white"/>
</radialGradient>
<radialGradient id="paint35_diamond_544_2" cx="0" cy="0" r="1" gradientUnits="userSpaceOnUse" gradientTransform="translate(1510.62 334) scale(30.3005 26.4455)">
<stop offset="0.119792" stop-color="#F9FBFF"/>
<stop offset="0.536458" stop-color="#D3FFFA"/>
<stop offset="0.992535" stop-color="white"/>
</radialGradient>
<radialGradient id="paint36_diamond_544_2" cx="0" cy="0" r="1" gradientUnits="userSpaceOnUse" gradientTransform="translate(1518.89 333.4) scale(18.1803 15.8673)">
<stop offset="0.119792" stop-color="#F9FBFF"/>
<stop offset="0.562383" stop-color="#01FCDF" stop-opacity="0.989333"/>
<stop offset="0.992535" stop-color="white"/>
</radialGradient>
<radialGradient id="paint37_diamond_544_2" cx="0" cy="0" r="1" gradientUnits="userSpaceOnUse" gradientTransform="translate(1461.87 232.885) scale(6.81313 5.94633)">
<stop offset="0.119792" stop-color="#F9FBFF"/>
<stop offset="0.536458" stop-color="#D3FFFA"/>
<stop offset="0.992535" stop-color="white"/>
</radialGradient>
<radialGradient id="paint38_diamond_544_2" cx="0" cy="0" r="1" gradientUnits="userSpaceOnUse" gradientTransform="translate(1458.47 233) scale(11.654 10.1714)">
<stop offset="0.119792" stop-color="#F9FBFF"/>
<stop offset="0.536458" stop-color="#D3FFFA"/>
<stop offset="0.992535" stop-color="white"/>
</radialGradient>
<radialGradient id="paint39_diamond_544_2" cx="0" cy="0" r="1" gradientUnits="userSpaceOnUse" gradientTransform="translate(1461.65 232.77) scale(6.99242 6.10281)">
<stop offset="0.119792" stop-color="#F9FBFF"/>
<stop offset="0.562383" stop-color="#01FCDF" stop-opacity="0.989333"/>
<stop offset="0.992535" stop-color="white"/>
</radialGradient>
<radialGradient id="paint40_diamond_544_2" cx="0" cy="0" r="1" gradientUnits="userSpaceOnUse" gradientTransform="translate(1508.74 55.7308) scale(15.8973 13.8748)">
<stop offset="0.119792" stop-color="#F9FBFF"/>
<stop offset="0.536458" stop-color="#D3FFFA"/>
<stop offset="0.992535" stop-color="white"/>
</radialGradient>
<radialGradient id="paint41_diamond_544_2" cx="0" cy="0" r="1" gradientUnits="userSpaceOnUse" gradientTransform="translate(1500.79 56) scale(27.1928 23.7332)">
<stop offset="0.119792" stop-color="#F9FBFF"/>
<stop offset="0.536458" stop-color="#D3FFFA"/>
<stop offset="0.992535" stop-color="white"/>
</radialGradient>
<radialGradient id="paint42_diamond_544_2" cx="0" cy="0" r="1" gradientUnits="userSpaceOnUse" gradientTransform="translate(1508.21 55.4624) scale(16.3157 14.2399)">
<stop offset="0.119792" stop-color="#F9FBFF"/>
<stop offset="0.562383" stop-color="#01FCDF" stop-opacity="0.989333"/>
<stop offset="0.992535" stop-color="white"/>
</radialGradient>
<radialGradient id="paint43_diamond_544_2" cx="0" cy="0" r="1" gradientUnits="userSpaceOnUse" gradientTransform="translate(1558.85 412.3) scale(11.8094 10.307)">
<stop offset="0.119792" stop-color="#F9FBFF"/>
<stop offset="0.536458" stop-color="#D3FFFA"/>
<stop offset="0.992535" stop-color="white"/>
</radialGradient>
<radialGradient id="paint44_diamond_544_2" cx="0" cy="0" r="1" gradientUnits="userSpaceOnUse" gradientTransform="translate(1552.95 412.5) scale(20.2003 17.6303)">
<stop offset="0.119792" stop-color="#F9FBFF"/>
<stop offset="0.536458" stop-color="#D3FFFA"/>
<stop offset="0.992535" stop-color="white"/>
</radialGradient>
<radialGradient id="paint45_diamond_544_2" cx="0" cy="0" r="1" gradientUnits="userSpaceOnUse" gradientTransform="translate(1558.46 412.1) scale(12.1202 10.5782)">
<stop offset="0.119792" stop-color="#F9FBFF"/>
<stop offset="0.562383" stop-color="#01FCDF" stop-opacity="0.989333"/>
<stop offset="0.992535" stop-color="white"/>
</radialGradient>
<linearGradient id="paint46_linear_544_2" x1="-59.977" y1="14.0534" x2="28.5605" y2="14.0534" gradientUnits="userSpaceOnUse">
<stop stop-color="white"/>
<stop offset="1" stop-color="#1B2337"/>
</linearGradient>
<radialGradient id="paint47_diamond_544_2" cx="0" cy="0" r="1" gradientUnits="userSpaceOnUse" gradientTransform="translate(727.781 238.439) scale(24.6476 21.5118)">
<stop offset="0.119792" stop-color="#F9FBFF"/>
<stop offset="0.536458" stop-color="#D3FFFA"/>
<stop offset="0.992535" stop-color="white"/>
</radialGradient>
<radialGradient id="paint48_diamond_544_2" cx="0" cy="0" r="1" gradientUnits="userSpaceOnUse" gradientTransform="translate(715.461 238.858) scale(42.1603 36.7965)">
<stop offset="0.119792" stop-color="#F9FBFF"/>
<stop offset="0.536458" stop-color="#D3FFFA"/>
<stop offset="0.992535" stop-color="white"/>
</radialGradient>
<radialGradient id="paint49_diamond_544_2" cx="0" cy="0" r="1" gradientUnits="userSpaceOnUse" gradientTransform="translate(726.961 238.023) scale(25.2962 22.0779)">
<stop offset="0.119792" stop-color="#F9FBFF"/>
<stop offset="0.562383" stop-color="#01FCDF" stop-opacity="0.989333"/>
<stop offset="0.992535" stop-color="white"/>
</radialGradient>
<radialGradient id="paint50_radial_544_2" cx="0" cy="0" r="1" gradientUnits="userSpaceOnUse" gradientTransform="translate(1237.5 773) rotate(161.949) scale(919.769 621.459)">
<stop stop-color="#00FFE0"/>
<stop offset="0.229167" stop-color="#1097BB" stop-opacity="0.68"/>
<stop offset="0.515625" stop-color="#22356F" stop-opacity="0.6"/>
<stop offset="0.796875" stop-color="#1E232E" stop-opacity="0.58"/>
<stop offset="1" stop-color="#161920" stop-opacity="0"/>
</radialGradient>
</defs>
</svg>
