<svg width="86" height="447" viewBox="0 0 86 447" fill="none" xmlns="http://www.w3.org/2000/svg">
<mask id="mask0_550_3" style="mask-type:alpha" maskUnits="userSpaceOnUse" x="0" y="0" width="86" height="447">
<rect width="86" height="447" fill="#C4C4C4"/>
</mask>
<g mask="url(#mask0_550_3)">
<mask id="mask1_550_3" style="mask-type:alpha" maskUnits="userSpaceOnUse" x="0" y="0" width="86" height="447">
<rect width="86" height="447" fill="white"/>
</mask>
<g mask="url(#mask1_550_3)">
<path d="M0.464161 13.2691L0.781356 412.918L20.6582 446.229L20.6653 46.251L0.464161 13.2691Z" fill="url(#paint0_linear_550_3)"/>
<path d="M0.464161 13.2691L0.781356 412.918L20.6582 446.229L20.6653 46.251L0.464161 13.2691Z" fill="black"/>
<path d="M0.464161 13.2691L0.781356 412.918L20.6582 446.229L20.6653 46.251L0.464161 13.2691Z" fill="url(#paint1_linear_550_3)"/>
<path d="M0.464161 13.2691L0.781356 412.918L20.6582 446.229L20.6653 46.251L0.464161 13.2691Z" fill="url(#paint2_linear_550_3)"/>
<path d="M22.7758 446.967L83.9656 435.897L85.0027 35.1866L22.7758 46.9307L22.7758 446.967Z" fill="url(#paint3_linear_550_3)"/>
<path d="M22.7758 446.967L83.9656 435.897L85.0027 35.1866L22.7758 46.9307L22.7758 446.967Z" fill="url(#paint4_linear_550_3)"/>
<path d="M0.549012 13.2504L2.55078 11.751L22.7083 43.9535L20.5497 46.2508L0.549012 13.2504Z" fill="url(#paint5_linear_550_3)"/>
<path d="M65.2162 1.48462L86.3716 34.3338L84.8798 33.1382L63.6119 0.377822L65.2162 1.48462Z" fill="url(#paint6_linear_550_3)"/>
<path d="M2.54936 11.7553L63.7285 0.94907L84.9963 33.7094L22.8263 44.7868L2.54936 11.7553Z" fill="url(#paint7_linear_550_3)"/>
<path d="M2.54936 11.7553L63.7285 0.94907L84.9963 33.7094L22.8263 44.7868L2.54936 11.7553Z" fill="url(#paint8_linear_550_3)"/>
<path d="M85.0842 33.8126L85.167 35.3908L22.5536 47.2493L22.5018 44.0839L84.4996 33.3461C84.7949 33.295 85.0685 33.5133 85.0842 33.8126Z" fill="url(#paint9_linear_550_3)"/>
<path d="M85.0842 33.8126L85.167 35.3908L22.5536 47.2493L22.5018 44.0839L84.4996 33.3461C84.7949 33.295 85.0685 33.5133 85.0842 33.8126Z" fill="black"/>
<path d="M85.0842 33.8126L85.167 35.3908L22.5536 47.2493L22.5018 44.0839L84.4996 33.3461C84.7949 33.295 85.0685 33.5133 85.0842 33.8126Z" fill="url(#paint10_linear_550_3)"/>
<path d="M85.0842 33.8126L85.167 35.3908L22.5536 47.2493L22.5018 44.0839L84.4996 33.3461C84.7949 33.295 85.0685 33.5133 85.0842 33.8126Z" fill="url(#paint11_linear_550_3)"/>
<path d="M84.9531 33.529L85.0547 36.251L86.0547 34.2503L84.9531 33.529Z" fill="#C4C4C4"/>
<path d="M84.9531 33.529L85.0547 36.251L86.0547 34.2503L84.9531 33.529Z" fill="url(#paint12_linear_550_3)"/>
<path d="M85.0022 35.198L86.0547 34.251L85.0022 434.57L83.9688 435.897L85.0022 35.198Z" fill="url(#paint13_linear_550_3)"/>
<path d="M20.6639 446.232L22.7808 446.97L22.8933 46.9007L20.6639 46.251L20.6639 446.232Z" fill="url(#paint14_linear_550_3)"/>
</g>
</g>
<defs>
<linearGradient id="paint0_linear_550_3" x1="-10.7126" y1="445.557" x2="32.7373" y2="434.679" gradientUnits="userSpaceOnUse">
<stop offset="0.137331" stop-color="#161920" stop-opacity="0"/>
<stop offset="0.375" stop-color="#1E232E" stop-opacity="0.58"/>
<stop offset="0.546875" stop-color="#22356F" stop-opacity="0.6"/>
<stop offset="0.765625" stop-color="#1097BB" stop-opacity="0.68"/>
<stop offset="1" stop-color="#00FFE0"/>
</linearGradient>
<linearGradient id="paint1_linear_550_3" x1="7.55643" y1="445.365" x2="40.9775" y2="433.409" gradientUnits="userSpaceOnUse">
<stop stop-color="#010611"/>
<stop offset="0.224899" stop-color="#162650"/>
<stop offset="0.463542" stop-color="#29649B"/>
<stop offset="1" stop-color="#00FDDF"/>
</linearGradient>
<linearGradient id="paint2_linear_550_3" x1="-31.8602" y1="287.474" x2="5.8803" y2="282.554" gradientUnits="userSpaceOnUse">
<stop stop-color="#010611"/>
<stop offset="0.224899" stop-color="#162650"/>
<stop offset="0.463542" stop-color="#29649B"/>
<stop offset="1" stop-color="#00FDDF"/>
</linearGradient>
<linearGradient id="paint3_linear_550_3" x1="22.7721" y1="446.393" x2="85.0504" y2="379.941" gradientUnits="userSpaceOnUse">
<stop stop-color="#010611"/>
<stop offset="0.224899" stop-color="#162650"/>
<stop offset="0.463542" stop-color="#29649B"/>
<stop offset="1" stop-color="#00FDDF"/>
</linearGradient>
<linearGradient id="paint4_linear_550_3" x1="-89.9492" y1="263.251" x2="105.226" y2="295.818" gradientUnits="userSpaceOnUse">
<stop stop-color="#010611"/>
<stop offset="0.224899" stop-color="#162650"/>
<stop offset="0.463542" stop-color="#29649B"/>
<stop offset="1" stop-color="#00FDDF"/>
</linearGradient>
<linearGradient id="paint5_linear_550_3" x1="7.51047" y1="19.6018" x2="4.98654" y2="21.1815" gradientUnits="userSpaceOnUse">
<stop stop-color="#22356F"/>
<stop offset="0.598958" stop-color="#1097BB"/>
<stop offset="0.695377" stop-color="#0BD3CC"/>
</linearGradient>
<linearGradient id="paint6_linear_550_3" x1="58.9141" y1="51.2091" x2="90.2322" y2="41.0451" gradientUnits="userSpaceOnUse">
<stop stop-color="#010611"/>
<stop offset="0.48179" stop-color="#162650"/>
<stop offset="0.687542" stop-color="#29649B"/>
<stop offset="0.864308" stop-color="#00BECB"/>
<stop offset="1" stop-color="#00FDDF"/>
</linearGradient>
<linearGradient id="paint7_linear_550_3" x1="5.63666" y1="38.5404" x2="70.3968" y2="-5.05827" gradientUnits="userSpaceOnUse">
<stop stop-color="#010611"/>
<stop offset="0.224899" stop-color="#162650"/>
<stop offset="0.463542" stop-color="#29649B"/>
<stop offset="1" stop-color="#00FDDF"/>
</linearGradient>
<linearGradient id="paint8_linear_550_3" x1="-24.0299" y1="-15.2316" x2="76.5073" y2="17.1338" gradientUnits="userSpaceOnUse">
<stop stop-color="#010611"/>
<stop offset="0.224899" stop-color="#162650"/>
<stop offset="0.463542" stop-color="#29649B"/>
<stop offset="1" stop-color="#00FDDF"/>
</linearGradient>
<linearGradient id="paint9_linear_550_3" x1="-22.8361" y1="57.484" x2="-13.1437" y2="11.2689" gradientUnits="userSpaceOnUse">
<stop offset="0.137331" stop-color="#161920" stop-opacity="0"/>
<stop offset="0.375" stop-color="#1E232E" stop-opacity="0.58"/>
<stop offset="0.546875" stop-color="#22356F" stop-opacity="0.6"/>
<stop offset="0.765625" stop-color="#1097BB" stop-opacity="0.68"/>
<stop offset="1" stop-color="#00FFE0"/>
</linearGradient>
<linearGradient id="paint10_linear_550_3" x1="4.95096" y1="52.0663" x2="6.26729" y2="30.1824" gradientUnits="userSpaceOnUse">
<stop stop-color="#010611"/>
<stop offset="0.224899" stop-color="#162650"/>
<stop offset="0.463542" stop-color="#29649B"/>
<stop offset="1" stop-color="#00FDDF"/>
</linearGradient>
<linearGradient id="paint11_linear_550_3" x1="5.1438" y1="44.0955" x2="14.8663" y2="64.9701" gradientUnits="userSpaceOnUse">
<stop stop-color="#010611"/>
<stop offset="0.224899" stop-color="#162650"/>
<stop offset="0.463542" stop-color="#29649B"/>
<stop offset="1" stop-color="#00FDDF"/>
</linearGradient>
<linearGradient id="paint12_linear_550_3" x1="84.5209" y1="34.6609" x2="86.7023" y2="34.0304" gradientUnits="userSpaceOnUse">
<stop stop-color="#1097BB" stop-opacity="0.68"/>
<stop offset="0.0001" stop-color="#1097BB"/>
<stop offset="1" stop-color="#00FFE0"/>
</linearGradient>
<linearGradient id="paint13_linear_550_3" x1="84.4876" y1="435.79" x2="86.2378" y2="379.253" gradientUnits="userSpaceOnUse">
<stop offset="0.23252" stop-color="#066979"/>
<stop offset="1" stop-color="#00FADE"/>
</linearGradient>
<linearGradient id="paint14_linear_550_3" x1="20.5861" y1="419.87" x2="23.6864" y2="419.889" gradientUnits="userSpaceOnUse">
<stop stop-color="#1385AC"/>
<stop offset="0.559233" stop-color="#21366F"/>
<stop offset="1" stop-color="#1D3165"/>
</linearGradient>
</defs>
</svg>
