<svg width="390" height="993" viewBox="0 0 390 993" fill="none" xmlns="http://www.w3.org/2000/svg">
<mask id="mask0_601_7" style="mask-type:alpha" maskUnits="userSpaceOnUse" x="0" y="0" width="390" height="993">
<rect width="390" height="993" fill="#C4C4C4"/>
</mask>
<g mask="url(#mask0_601_7)">
<g filter="url(#filter0_f_601_7)">
<circle cx="122.249" cy="48.9063" r="2.4952" fill="white"/>
<circle cx="122.249" cy="48.9063" r="2.4952" fill="url(#paint0_radial_601_7)"/>
</g>
<path d="M122.995 46.9092L37.1602 188.387C91.5554 213.089 201.095 257.753 201.095 257.753C201.095 257.753 296.162 158.694 343.321 111.535H205.835" stroke="url(#paint1_linear_601_7)"/>
<circle cx="201.097" cy="257.505" r="2.4952" fill="white"/>
<circle cx="343.323" cy="111.286" r="2.4952" fill="white"/>
<circle cx="37.4132" cy="188.638" r="2.4952" fill="url(#paint2_linear_601_7)"/>
<circle cx="206.085" cy="111.286" r="2.4952" fill="white"/>
<circle cx="206.085" cy="111.286" r="2.4952" fill="url(#paint3_linear_601_7)"/>
<path d="M122.251 39.4258L123.123 48.0359L131.733 48.9075L123.123 49.7791L122.251 58.3893L121.38 49.7791L112.77 48.9075L121.38 48.0359L122.251 39.4258Z" fill="#C4C4C4"/>
<path d="M122.251 39.4258L123.123 48.0359L131.733 48.9075L123.123 49.7791L122.251 58.3893L121.38 49.7791L112.77 48.9075L121.38 48.0359L122.251 39.4258Z" fill="url(#paint4_diamond_601_7)"/>
<g opacity="0.17" filter="url(#filter1_f_601_7)">
<path d="M122.5 31.9395L123.991 46.6673L138.719 48.1582L123.991 49.6491L122.5 64.377L121.009 49.6491L106.281 48.1582L121.009 46.6673L122.5 31.9395Z" fill="url(#paint5_diamond_601_7)"/>
</g>
<g filter="url(#filter2_f_601_7)">
<path d="M122.001 38.9258L122.895 47.7625L131.732 48.657L122.895 49.5516L122.001 58.3883L121.106 49.5516L112.27 48.657L121.106 47.7625L122.001 38.9258Z" fill="url(#paint6_diamond_601_7)"/>
</g>
<g opacity="0.1">
<path d="M207.764 2.1875L208.019 4.70431L210.535 4.95909L208.019 5.21386L207.764 7.73067L207.509 5.21386L204.992 4.95909L207.509 4.70431L207.764 2.1875Z" fill="#C4C4C4"/>
<path d="M207.764 2.1875L208.019 4.70431L210.535 4.95909L208.019 5.21386L207.764 7.73067L207.509 5.21386L204.992 4.95909L207.509 4.70431L207.764 2.1875Z" fill="url(#paint7_diamond_601_7)"/>
<g opacity="0.17" filter="url(#filter3_f_601_7)">
<path d="M207.835 0L208.27 4.30507L212.575 4.74087L208.27 5.17667L207.835 9.48175L207.399 5.17667L203.094 4.74087L207.399 4.30507L207.835 0Z" fill="url(#paint8_diamond_601_7)"/>
</g>
<g filter="url(#filter4_f_601_7)">
<path d="M207.688 2.04199L207.95 4.62504L210.533 4.88652L207.95 5.148L207.688 7.73104L207.427 5.148L204.844 4.88652L207.427 4.62504L207.688 2.04199Z" fill="url(#paint9_diamond_601_7)"/>
</g>
</g>
<path d="M51.5878 8.98242L51.7621 10.7045L53.4841 10.8788L51.7621 11.0531L51.5878 12.7751L51.4134 11.0531L49.6914 10.8788L51.4134 10.7045L51.5878 8.98242Z" fill="#C4C4C4"/>
<path d="M51.5878 8.98242L51.7621 10.7045L53.4841 10.8788L51.7621 11.0531L51.5878 12.7751L51.4134 11.0531L49.6914 10.8788L51.4134 10.7045L51.5878 8.98242Z" fill="url(#paint10_diamond_601_7)"/>
<g opacity="0.17" filter="url(#filter5_f_601_7)">
<path d="M51.6383 7.48535L51.9365 10.4309L54.882 10.7291L51.9365 11.0273L51.6383 13.9729L51.3401 11.0273L48.3945 10.7291L51.3401 10.4309L51.6383 7.48535Z" fill="url(#paint11_diamond_601_7)"/>
</g>
<g filter="url(#filter6_f_601_7)">
<path d="M51.54 8.88281L51.7189 10.6502L53.4863 10.8291L51.7189 11.008L51.54 12.7753L51.3611 11.008L49.5938 10.8291L51.3611 10.6502L51.54 8.88281Z" fill="url(#paint12_diamond_601_7)"/>
</g>
<path d="M15.6658 35.585L15.7999 36.9096L17.1245 37.0437L15.7999 37.1778L15.6658 38.5024L15.5317 37.1778L14.207 37.0437L15.5317 36.9096L15.6658 35.585Z" fill="#C4C4C4"/>
<path d="M15.6658 35.585L15.7999 36.9096L17.1245 37.0437L15.7999 37.1778L15.6658 38.5024L15.5317 37.1778L14.207 37.0437L15.5317 36.9096L15.6658 35.585Z" fill="url(#paint13_diamond_601_7)"/>
<g opacity="0.17" filter="url(#filter7_f_601_7)">
<path d="M15.7061 34.4336L15.9355 36.6994L18.2013 36.9288L15.9355 37.1582L15.7061 39.424L15.4768 37.1582L13.2109 36.9288L15.4768 36.6994L15.7061 34.4336Z" fill="url(#paint14_diamond_601_7)"/>
</g>
<g filter="url(#filter8_f_601_7)">
<path d="M15.6299 35.5088L15.7676 36.8683L17.127 37.0059L15.7676 37.1435L15.6299 38.503L15.4923 37.1435L14.1328 37.0059L15.4923 36.8683L15.6299 35.5088Z" fill="url(#paint15_diamond_601_7)"/>
</g>
<path d="M354.997 29.1758L355.198 31.1627L357.185 31.3639L355.198 31.565L354.997 33.552L354.796 31.565L352.809 31.3639L354.796 31.1627L354.997 29.1758Z" fill="#C4C4C4"/>
<path d="M354.997 29.1758L355.198 31.1627L357.185 31.3639L355.198 31.565L354.997 33.552L354.796 31.565L352.809 31.3639L354.796 31.1627L354.997 29.1758Z" fill="url(#paint16_diamond_601_7)"/>
<g opacity="0.17" filter="url(#filter9_f_601_7)">
<path d="M355.051 27.4473L355.395 30.846L358.794 31.1901L355.395 31.5341L355.051 34.9329L354.707 31.5341L351.309 31.1901L354.707 30.846L355.051 27.4473Z" fill="url(#paint17_diamond_601_7)"/>
</g>
<g filter="url(#filter10_f_601_7)">
<path d="M354.937 29.0596L355.144 31.0988L357.183 31.3052L355.144 31.5117L354.937 33.5509L354.731 31.5117L352.691 31.3052L354.731 31.0988L354.937 29.0596Z" fill="url(#paint18_diamond_601_7)"/>
</g>
<g opacity="0.1">
<path d="M266.586 52.9385L267.055 57.5747L271.692 58.044L267.055 58.5134L266.586 63.1496L266.117 58.5134L261.48 58.044L266.117 57.5747L266.586 52.9385Z" fill="#C4C4C4"/>
<path d="M266.586 52.9385L267.055 57.5747L271.692 58.044L267.055 58.5134L266.586 63.1496L266.117 58.5134L261.48 58.044L266.117 57.5747L266.586 52.9385Z" fill="url(#paint19_diamond_601_7)"/>
<g opacity="0.17" filter="url(#filter11_f_601_7)">
<path d="M266.718 48.9072L267.52 56.8376L275.451 57.6404L267.52 58.4432L266.718 66.3736L265.915 58.4432L257.984 57.6404L265.915 56.8376L266.718 48.9072Z" fill="url(#paint20_diamond_601_7)"/>
</g>
<g filter="url(#filter12_f_601_7)">
<path d="M266.447 52.6689L266.929 57.4272L271.687 57.9089L266.929 58.3905L266.447 63.1488L265.965 58.3905L261.207 57.9089L265.965 57.4272L266.447 52.6689Z" fill="url(#paint21_diamond_601_7)"/>
</g>
</g>
<path d="M61.9336 431.226L189.731 599.587L349.226 556.588L197.529 359.118L265.705 307.519" stroke="url(#paint22_linear_601_7)"/>
<circle cx="61.9355" cy="431.034" r="3.41202" fill="#145D79"/>
<circle cx="190.225" cy="599.588" r="3.41202" fill="#191D25"/>
<circle cx="349.225" cy="556.597" r="3.41202" fill="#1C294B"/>
<path d="M264.61 295.236L265.802 307.01L277.576 308.202L265.802 309.394L264.61 321.168L263.418 309.394L251.645 308.202L263.418 307.01L264.61 295.236Z" fill="#C4C4C4"/>
<path d="M264.61 295.236L265.802 307.01L277.576 308.202L265.802 309.394L264.61 321.168L263.418 309.394L251.645 308.202L263.418 307.01L264.61 295.236Z" fill="url(#paint23_diamond_601_7)"/>
<g opacity="0.17" filter="url(#filter13_f_601_7)">
<path d="M264.948 285L266.986 305.139L287.126 307.178L266.986 309.217L264.948 329.356L262.909 309.217L242.77 307.178L262.909 305.139L264.948 285Z" fill="url(#paint24_diamond_601_7)"/>
</g>
<g filter="url(#filter14_f_601_7)">
<path d="M264.264 294.554L265.487 306.637L277.571 307.861L265.487 309.084L264.264 321.167L263.041 309.084L250.957 307.861L263.041 306.637L264.264 294.554Z" fill="url(#paint25_diamond_601_7)"/>
</g>
<path d="M197.869 350.51L198.584 357.574L205.649 358.289L198.584 359.004L197.869 366.069L197.154 359.004L190.09 358.289L197.154 357.574L197.869 350.51Z" fill="#C4C4C4"/>
<path d="M197.869 350.51L198.584 357.574L205.649 358.289L198.584 359.004L197.869 366.069L197.154 359.004L190.09 358.289L197.154 357.574L197.869 350.51Z" fill="url(#paint26_diamond_601_7)"/>
<g opacity="0.17" filter="url(#filter15_f_601_7)">
<path d="M198.073 344.368L199.296 356.452L211.379 357.675L199.296 358.898L198.073 370.982L196.849 358.898L184.766 357.675L196.849 356.452L198.073 344.368Z" fill="url(#paint27_diamond_601_7)"/>
</g>
<g filter="url(#filter16_f_601_7)">
<path d="M197.664 350.102L198.398 357.352L205.648 358.086L198.398 358.82L197.664 366.07L196.93 358.82L189.68 358.086L196.93 357.352L197.664 350.102Z" fill="url(#paint28_diamond_601_7)"/>
</g>
<g opacity="0.1" filter="url(#filter17_f_601_7)">
<path d="M50.4708 327.31L51.1859 334.374L58.2502 335.089L51.1859 335.804L50.4708 342.868L49.7557 335.804L42.6914 335.089L49.7557 334.374L50.4708 327.31Z" fill="#C4C4C4"/>
<path d="M50.4708 327.31L51.1859 334.374L58.2502 335.089L51.1859 335.804L50.4708 342.868L49.7557 335.804L42.6914 335.089L49.7557 334.374L50.4708 327.31Z" fill="url(#paint29_diamond_601_7)"/>
<g opacity="0.17" filter="url(#filter18_f_601_7)">
<path d="M50.6741 321.168L51.8973 333.252L63.9809 334.475L51.8973 335.698L50.6741 347.782L49.4508 335.698L37.3672 334.475L49.4508 333.252L50.6741 321.168Z" fill="url(#paint30_diamond_601_7)"/>
</g>
<g filter="url(#filter19_f_601_7)">
<path d="M50.2654 326.901L50.9993 334.152L58.2495 334.885L50.9993 335.619L50.2654 342.87L49.5314 335.619L42.2812 334.885L49.5314 334.152L50.2654 326.901Z" fill="url(#paint31_diamond_601_7)"/>
</g>
</g>
<g opacity="0.05">
<path d="M104.104 354.605L104.581 359.315L109.291 359.792L104.581 360.268L104.104 364.978L103.627 360.268L98.918 359.792L103.627 359.315L104.104 354.605Z" fill="#C4C4C4"/>
<path d="M104.104 354.605L104.581 359.315L109.291 359.792L104.581 360.268L104.104 364.978L103.627 360.268L98.918 359.792L103.627 359.315L104.104 354.605Z" fill="url(#paint32_diamond_601_7)"/>
<g opacity="0.17" filter="url(#filter20_f_601_7)">
<path d="M104.238 350.511L105.054 358.567L113.11 359.382L105.054 360.197L104.238 368.253L103.423 360.197L95.3672 359.382L103.423 358.567L104.238 350.511Z" fill="url(#paint33_diamond_601_7)"/>
</g>
<g filter="url(#filter21_f_601_7)">
<path d="M103.967 354.332L104.457 359.165L109.29 359.655L104.457 360.144L103.967 364.978L103.478 360.144L98.6445 359.655L103.478 359.165L103.967 354.332Z" fill="url(#paint34_diamond_601_7)"/>
</g>
</g>
<path d="M58 814.46L131.112 977.614L322.329 962.751L374 757.771L175.753 650.614L189.462 757.771" stroke="url(#paint35_linear_601_7)"/>
<path d="M49.127 728.314L49.4058 731.069L52.1602 731.348L49.4058 731.627L49.127 734.381L48.8481 731.627L46.0938 731.348L48.8481 731.069L49.127 728.314Z" fill="#C4C4C4"/>
<path d="M49.127 728.314L49.4058 731.069L52.1602 731.348L49.4058 731.627L49.127 734.381L48.8481 731.627L46.0938 731.348L48.8481 731.069L49.127 728.314Z" fill="url(#paint36_diamond_601_7)"/>
<g opacity="0.17" filter="url(#filter22_f_601_7)">
<path d="M49.2079 725.919L49.6849 730.63L54.3963 731.107L49.6849 731.584L49.2079 736.296L48.731 731.584L44.0195 731.107L48.731 730.63L49.2079 725.919Z" fill="url(#paint37_diamond_601_7)"/>
</g>
<g filter="url(#filter23_f_601_7)">
<path d="M49.0505 728.154L49.3367 730.981L52.1636 731.267L49.3367 731.554L49.0505 734.38L48.7644 731.554L45.9375 731.267L48.7644 730.981L49.0505 728.154Z" fill="url(#paint38_diamond_601_7)"/>
</g>
<g opacity="0.05">
<path d="M154.204 789.077L154.743 794.402L160.068 794.941L154.743 795.48L154.204 800.806L153.665 795.48L148.34 794.941L153.665 794.402L154.204 789.077Z" fill="#C4C4C4"/>
<path d="M154.204 789.077L154.743 794.402L160.068 794.941L154.743 795.48L154.204 800.806L153.665 795.48L148.34 794.941L153.665 794.402L154.204 789.077Z" fill="url(#paint39_diamond_601_7)"/>
<g opacity="0.17" filter="url(#filter24_f_601_7)">
<path d="M154.359 784.447L155.281 793.556L164.39 794.478L155.281 795.4L154.359 804.509L153.437 795.4L144.328 794.478L153.437 793.556L154.359 784.447Z" fill="url(#paint40_diamond_601_7)"/>
</g>
<g filter="url(#filter25_f_601_7)">
<path d="M154.05 788.769L154.603 794.234L160.068 794.787L154.603 795.34L154.05 800.806L153.497 795.34L148.031 794.787L153.497 794.234L154.05 788.769Z" fill="url(#paint41_diamond_601_7)"/>
</g>
</g>
<path d="M298.903 619.276L299.052 620.745L300.521 620.894L299.052 621.043L298.903 622.512L298.754 621.043L297.285 620.894L298.754 620.745L298.903 619.276Z" fill="#C4C4C4"/>
<path d="M298.903 619.276L299.052 620.745L300.521 620.894L299.052 621.043L298.903 622.512L298.754 621.043L297.285 620.894L298.754 620.745L298.903 619.276Z" fill="url(#paint42_diamond_601_7)"/>
<g opacity="0.17" filter="url(#filter26_f_601_7)">
<path d="M298.943 618L299.197 620.513L301.71 620.767L299.197 621.022L298.943 623.534L298.689 621.022L296.176 620.767L298.689 620.513L298.943 618Z" fill="url(#paint43_diamond_601_7)"/>
</g>
<g filter="url(#filter27_f_601_7)">
<path d="M298.86 619.191L299.012 620.699L300.52 620.852L299.012 621.004L298.86 622.512L298.707 621.004L297.199 620.852L298.707 620.699L298.86 619.191Z" fill="url(#paint44_diamond_601_7)"/>
</g>
<g filter="url(#filter28_f_601_7)">
<circle cx="18.5" cy="626.114" r="2.5" fill="#299AC0"/>
</g>
<path d="M189.278 747.692L190.057 755.39L197.755 756.169L190.057 756.949L189.278 764.646L188.498 756.949L180.801 756.169L188.498 755.39L189.278 747.692Z" fill="#C4C4C4"/>
<path d="M189.278 747.692L190.057 755.39L197.755 756.169L190.057 756.949L189.278 764.646L188.498 756.949L180.801 756.169L188.498 755.39L189.278 747.692Z" fill="url(#paint45_diamond_601_7)"/>
<g opacity="0.17" filter="url(#filter29_f_601_7)">
<path d="M189.5 741L190.833 754.167L204 755.5L190.833 756.833L189.5 770L188.167 756.833L175 755.5L188.167 754.167L189.5 741Z" fill="url(#paint46_diamond_601_7)"/>
</g>
<g filter="url(#filter30_f_601_7)">
<path d="M189.055 747.246L189.855 755.146L197.755 755.946L189.855 756.746L189.055 764.646L188.256 756.746L180.355 755.946L188.256 755.146L189.055 747.246Z" fill="url(#paint47_diamond_601_7)"/>
</g>
<circle cx="58.5" cy="815.114" r="3.5" fill="#1A4163"/>
<circle cx="131.5" cy="978.114" r="3.5" fill="#161920"/>
<circle cx="322.5" cy="962.5" r="3.5" fill="#1D2333"/>
<circle cx="373.5" cy="758.114" r="3.5" fill="#58B1B7"/>
<circle cx="175.5" cy="650.5" r="3.5" fill="white"/>
<mask id="mask1_601_7" style="mask-type:alpha" maskUnits="userSpaceOnUse" x="0" y="0" width="390" height="578">
<rect x="390" y="578" width="390" height="578" transform="rotate(180 390 578)" fill="#C4C4C4"/>
</mask>
<g mask="url(#mask1_601_7)">
<g opacity="0.79" filter="url(#filter31_f_601_7)">
<path d="M145.985 18L-45 -2.54348L432 -3L145.985 18Z" fill="white"/>
<path d="M145.985 18L-45 -2.54348L432 -3L145.985 18Z" stroke="black"/>
</g>
</g>
</g>
<defs>
<filter id="filter0_f_601_7" x="108.754" y="35.4111" width="26.9922" height="26.9902" filterUnits="userSpaceOnUse" color-interpolation-filters="sRGB">
<feFlood flood-opacity="0" result="BackgroundImageFix"/>
<feBlend mode="normal" in="SourceGraphic" in2="BackgroundImageFix" result="shape"/>
<feGaussianBlur stdDeviation="5.5" result="effect1_foregroundBlur_601_7"/>
</filter>
<filter id="filter1_f_601_7" x="101.281" y="26.9395" width="42.4375" height="42.4375" filterUnits="userSpaceOnUse" color-interpolation-filters="sRGB">
<feFlood flood-opacity="0" result="BackgroundImageFix"/>
<feBlend mode="normal" in="SourceGraphic" in2="BackgroundImageFix" result="shape"/>
<feGaussianBlur stdDeviation="2.5" result="effect1_foregroundBlur_601_7"/>
</filter>
<filter id="filter2_f_601_7" x="107.27" y="33.9258" width="29.4609" height="29.4629" filterUnits="userSpaceOnUse" color-interpolation-filters="sRGB">
<feFlood flood-opacity="0" result="BackgroundImageFix"/>
<feBlend mode="normal" in="SourceGraphic" in2="BackgroundImageFix" result="shape"/>
<feGaussianBlur stdDeviation="2.5" result="effect1_foregroundBlur_601_7"/>
</filter>
<filter id="filter3_f_601_7" x="198.094" y="-5" width="19.4805" height="19.4814" filterUnits="userSpaceOnUse" color-interpolation-filters="sRGB">
<feFlood flood-opacity="0" result="BackgroundImageFix"/>
<feBlend mode="normal" in="SourceGraphic" in2="BackgroundImageFix" result="shape"/>
<feGaussianBlur stdDeviation="2.5" result="effect1_foregroundBlur_601_7"/>
</filter>
<filter id="filter4_f_601_7" x="199.844" y="-2.95801" width="15.6875" height="15.6895" filterUnits="userSpaceOnUse" color-interpolation-filters="sRGB">
<feFlood flood-opacity="0" result="BackgroundImageFix"/>
<feBlend mode="normal" in="SourceGraphic" in2="BackgroundImageFix" result="shape"/>
<feGaussianBlur stdDeviation="2.5" result="effect1_foregroundBlur_601_7"/>
</filter>
<filter id="filter5_f_601_7" x="43.3945" y="2.48535" width="16.4883" height="16.4873" filterUnits="userSpaceOnUse" color-interpolation-filters="sRGB">
<feFlood flood-opacity="0" result="BackgroundImageFix"/>
<feBlend mode="normal" in="SourceGraphic" in2="BackgroundImageFix" result="shape"/>
<feGaussianBlur stdDeviation="2.5" result="effect1_foregroundBlur_601_7"/>
</filter>
<filter id="filter6_f_601_7" x="44.5938" y="3.88281" width="13.8906" height="13.8926" filterUnits="userSpaceOnUse" color-interpolation-filters="sRGB">
<feFlood flood-opacity="0" result="BackgroundImageFix"/>
<feBlend mode="normal" in="SourceGraphic" in2="BackgroundImageFix" result="shape"/>
<feGaussianBlur stdDeviation="2.5" result="effect1_foregroundBlur_601_7"/>
</filter>
<filter id="filter7_f_601_7" x="8.21094" y="29.4336" width="14.9922" height="14.9902" filterUnits="userSpaceOnUse" color-interpolation-filters="sRGB">
<feFlood flood-opacity="0" result="BackgroundImageFix"/>
<feBlend mode="normal" in="SourceGraphic" in2="BackgroundImageFix" result="shape"/>
<feGaussianBlur stdDeviation="2.5" result="effect1_foregroundBlur_601_7"/>
</filter>
<filter id="filter8_f_601_7" x="9.13281" y="30.5088" width="12.9961" height="12.9941" filterUnits="userSpaceOnUse" color-interpolation-filters="sRGB">
<feFlood flood-opacity="0" result="BackgroundImageFix"/>
<feBlend mode="normal" in="SourceGraphic" in2="BackgroundImageFix" result="shape"/>
<feGaussianBlur stdDeviation="2.5" result="effect1_foregroundBlur_601_7"/>
</filter>
<filter id="filter9_f_601_7" x="346.309" y="22.4473" width="17.4844" height="17.4854" filterUnits="userSpaceOnUse" color-interpolation-filters="sRGB">
<feFlood flood-opacity="0" result="BackgroundImageFix"/>
<feBlend mode="normal" in="SourceGraphic" in2="BackgroundImageFix" result="shape"/>
<feGaussianBlur stdDeviation="2.5" result="effect1_foregroundBlur_601_7"/>
</filter>
<filter id="filter10_f_601_7" x="347.691" y="24.0596" width="14.4922" height="14.4912" filterUnits="userSpaceOnUse" color-interpolation-filters="sRGB">
<feFlood flood-opacity="0" result="BackgroundImageFix"/>
<feBlend mode="normal" in="SourceGraphic" in2="BackgroundImageFix" result="shape"/>
<feGaussianBlur stdDeviation="2.5" result="effect1_foregroundBlur_601_7"/>
</filter>
<filter id="filter11_f_601_7" x="252.984" y="43.9072" width="27.4648" height="27.4668" filterUnits="userSpaceOnUse" color-interpolation-filters="sRGB">
<feFlood flood-opacity="0" result="BackgroundImageFix"/>
<feBlend mode="normal" in="SourceGraphic" in2="BackgroundImageFix" result="shape"/>
<feGaussianBlur stdDeviation="2.5" result="effect1_foregroundBlur_601_7"/>
</filter>
<filter id="filter12_f_601_7" x="256.207" y="47.6689" width="20.4805" height="20.4795" filterUnits="userSpaceOnUse" color-interpolation-filters="sRGB">
<feFlood flood-opacity="0" result="BackgroundImageFix"/>
<feBlend mode="normal" in="SourceGraphic" in2="BackgroundImageFix" result="shape"/>
<feGaussianBlur stdDeviation="2.5" result="effect1_foregroundBlur_601_7"/>
</filter>
<filter id="filter13_f_601_7" x="237.77" y="280" width="54.3555" height="54.3564" filterUnits="userSpaceOnUse" color-interpolation-filters="sRGB">
<feFlood flood-opacity="0" result="BackgroundImageFix"/>
<feBlend mode="normal" in="SourceGraphic" in2="BackgroundImageFix" result="shape"/>
<feGaussianBlur stdDeviation="2.5" result="effect1_foregroundBlur_601_7"/>
</filter>
<filter id="filter14_f_601_7" x="245.957" y="289.554" width="36.6133" height="36.6133" filterUnits="userSpaceOnUse" color-interpolation-filters="sRGB">
<feFlood flood-opacity="0" result="BackgroundImageFix"/>
<feBlend mode="normal" in="SourceGraphic" in2="BackgroundImageFix" result="shape"/>
<feGaussianBlur stdDeviation="2.5" result="effect1_foregroundBlur_601_7"/>
</filter>
<filter id="filter15_f_601_7" x="179.766" y="339.368" width="36.6133" height="36.6133" filterUnits="userSpaceOnUse" color-interpolation-filters="sRGB">
<feFlood flood-opacity="0" result="BackgroundImageFix"/>
<feBlend mode="normal" in="SourceGraphic" in2="BackgroundImageFix" result="shape"/>
<feGaussianBlur stdDeviation="2.5" result="effect1_foregroundBlur_601_7"/>
</filter>
<filter id="filter16_f_601_7" x="184.68" y="345.102" width="25.9688" height="25.9678" filterUnits="userSpaceOnUse" color-interpolation-filters="sRGB">
<feFlood flood-opacity="0" result="BackgroundImageFix"/>
<feBlend mode="normal" in="SourceGraphic" in2="BackgroundImageFix" result="shape"/>
<feGaussianBlur stdDeviation="2.5" result="effect1_foregroundBlur_601_7"/>
</filter>
<filter id="filter17_f_601_7" x="33.3672" y="317.168" width="34.6133" height="34.6133" filterUnits="userSpaceOnUse" color-interpolation-filters="sRGB">
<feFlood flood-opacity="0" result="BackgroundImageFix"/>
<feBlend mode="normal" in="SourceGraphic" in2="BackgroundImageFix" result="shape"/>
<feGaussianBlur stdDeviation="2" result="effect1_foregroundBlur_601_7"/>
</filter>
<filter id="filter18_f_601_7" x="32.3672" y="316.168" width="36.6133" height="36.6133" filterUnits="userSpaceOnUse" color-interpolation-filters="sRGB">
<feFlood flood-opacity="0" result="BackgroundImageFix"/>
<feBlend mode="normal" in="SourceGraphic" in2="BackgroundImageFix" result="shape"/>
<feGaussianBlur stdDeviation="2.5" result="effect1_foregroundBlur_601_7"/>
</filter>
<filter id="filter19_f_601_7" x="37.2812" y="321.901" width="25.9688" height="25.9678" filterUnits="userSpaceOnUse" color-interpolation-filters="sRGB">
<feFlood flood-opacity="0" result="BackgroundImageFix"/>
<feBlend mode="normal" in="SourceGraphic" in2="BackgroundImageFix" result="shape"/>
<feGaussianBlur stdDeviation="2.5" result="effect1_foregroundBlur_601_7"/>
</filter>
<filter id="filter20_f_601_7" x="90.3672" y="345.511" width="27.7422" height="27.7422" filterUnits="userSpaceOnUse" color-interpolation-filters="sRGB">
<feFlood flood-opacity="0" result="BackgroundImageFix"/>
<feBlend mode="normal" in="SourceGraphic" in2="BackgroundImageFix" result="shape"/>
<feGaussianBlur stdDeviation="2.5" result="effect1_foregroundBlur_601_7"/>
</filter>
<filter id="filter21_f_601_7" x="93.6445" y="349.332" width="20.6445" height="20.6455" filterUnits="userSpaceOnUse" color-interpolation-filters="sRGB">
<feFlood flood-opacity="0" result="BackgroundImageFix"/>
<feBlend mode="normal" in="SourceGraphic" in2="BackgroundImageFix" result="shape"/>
<feGaussianBlur stdDeviation="2.5" result="effect1_foregroundBlur_601_7"/>
</filter>
<filter id="filter22_f_601_7" x="39.0195" y="720.919" width="20.375" height="20.377" filterUnits="userSpaceOnUse" color-interpolation-filters="sRGB">
<feFlood flood-opacity="0" result="BackgroundImageFix"/>
<feBlend mode="normal" in="SourceGraphic" in2="BackgroundImageFix" result="shape"/>
<feGaussianBlur stdDeviation="2.5" result="effect1_foregroundBlur_601_7"/>
</filter>
<filter id="filter23_f_601_7" x="40.9375" y="723.154" width="16.2266" height="16.2266" filterUnits="userSpaceOnUse" color-interpolation-filters="sRGB">
<feFlood flood-opacity="0" result="BackgroundImageFix"/>
<feBlend mode="normal" in="SourceGraphic" in2="BackgroundImageFix" result="shape"/>
<feGaussianBlur stdDeviation="2.5" result="effect1_foregroundBlur_601_7"/>
</filter>
<filter id="filter24_f_601_7" x="139.328" y="779.447" width="30.0625" height="30.0615" filterUnits="userSpaceOnUse" color-interpolation-filters="sRGB">
<feFlood flood-opacity="0" result="BackgroundImageFix"/>
<feBlend mode="normal" in="SourceGraphic" in2="BackgroundImageFix" result="shape"/>
<feGaussianBlur stdDeviation="2.5" result="effect1_foregroundBlur_601_7"/>
</filter>
<filter id="filter25_f_601_7" x="143.031" y="783.769" width="22.0352" height="22.0371" filterUnits="userSpaceOnUse" color-interpolation-filters="sRGB">
<feFlood flood-opacity="0" result="BackgroundImageFix"/>
<feBlend mode="normal" in="SourceGraphic" in2="BackgroundImageFix" result="shape"/>
<feGaussianBlur stdDeviation="2.5" result="effect1_foregroundBlur_601_7"/>
</filter>
<filter id="filter26_f_601_7" x="291.176" y="613" width="15.5352" height="15.5342" filterUnits="userSpaceOnUse" color-interpolation-filters="sRGB">
<feFlood flood-opacity="0" result="BackgroundImageFix"/>
<feBlend mode="normal" in="SourceGraphic" in2="BackgroundImageFix" result="shape"/>
<feGaussianBlur stdDeviation="2.5" result="effect1_foregroundBlur_601_7"/>
</filter>
<filter id="filter27_f_601_7" x="292.199" y="614.191" width="13.3203" height="13.3203" filterUnits="userSpaceOnUse" color-interpolation-filters="sRGB">
<feFlood flood-opacity="0" result="BackgroundImageFix"/>
<feBlend mode="normal" in="SourceGraphic" in2="BackgroundImageFix" result="shape"/>
<feGaussianBlur stdDeviation="2.5" result="effect1_foregroundBlur_601_7"/>
</filter>
<filter id="filter28_f_601_7" x="14" y="621.614" width="9" height="9" filterUnits="userSpaceOnUse" color-interpolation-filters="sRGB">
<feFlood flood-opacity="0" result="BackgroundImageFix"/>
<feBlend mode="normal" in="SourceGraphic" in2="BackgroundImageFix" result="shape"/>
<feGaussianBlur stdDeviation="1" result="effect1_foregroundBlur_601_7"/>
</filter>
<filter id="filter29_f_601_7" x="170" y="736" width="39" height="39" filterUnits="userSpaceOnUse" color-interpolation-filters="sRGB">
<feFlood flood-opacity="0" result="BackgroundImageFix"/>
<feBlend mode="normal" in="SourceGraphic" in2="BackgroundImageFix" result="shape"/>
<feGaussianBlur stdDeviation="2.5" result="effect1_foregroundBlur_601_7"/>
</filter>
<filter id="filter30_f_601_7" x="175.355" y="742.246" width="27.3984" height="27.4004" filterUnits="userSpaceOnUse" color-interpolation-filters="sRGB">
<feFlood flood-opacity="0" result="BackgroundImageFix"/>
<feBlend mode="normal" in="SourceGraphic" in2="BackgroundImageFix" result="shape"/>
<feGaussianBlur stdDeviation="2.5" result="effect1_foregroundBlur_601_7"/>
</filter>
<filter id="filter31_f_601_7" x="-60.0547" y="-18.5" width="507.09" height="52.002" filterUnits="userSpaceOnUse" color-interpolation-filters="sRGB">
<feFlood flood-opacity="0" result="BackgroundImageFix"/>
<feBlend mode="normal" in="SourceGraphic" in2="BackgroundImageFix" result="shape"/>
<feGaussianBlur stdDeviation="7.5" result="effect1_foregroundBlur_601_7"/>
</filter>
<radialGradient id="paint0_radial_601_7" cx="0" cy="0" r="1" gradientUnits="userSpaceOnUse" gradientTransform="translate(122.249 48.9063) rotate(-82.875) scale(2.01169)">
<stop stop-color="#161920"/>
<stop offset="0.15625" stop-color="#161920"/>
<stop offset="0.375" stop-color="#1E232E" stop-opacity="0.78"/>
<stop offset="0.546875" stop-color="#22356F" stop-opacity="0.6"/>
<stop offset="0.734375" stop-color="#1097BB" stop-opacity="0.68"/>
<stop offset="0.890625" stop-color="#00FFE0"/>
<stop offset="1" stop-color="white"/>
</radialGradient>
<linearGradient id="paint1_linear_601_7" x1="55.3751" y1="155.45" x2="156.059" y2="273.286" gradientUnits="userSpaceOnUse">
<stop stop-color="#161920"/>
<stop offset="0.15625" stop-color="#161920"/>
<stop offset="0.375" stop-color="#1E232E" stop-opacity="0.78"/>
<stop offset="0.546875" stop-color="#22356F" stop-opacity="0.6"/>
<stop offset="0.734375" stop-color="#1097BB" stop-opacity="0.68"/>
<stop offset="0.890625" stop-color="#00FFE0"/>
<stop offset="1" stop-color="white"/>
</linearGradient>
<linearGradient id="paint2_linear_601_7" x1="24.4381" y1="188.638" x2="39.9084" y2="188.638" gradientUnits="userSpaceOnUse">
<stop stop-color="white"/>
<stop offset="1" stop-color="#161920"/>
</linearGradient>
<linearGradient id="paint3_linear_601_7" x1="193.11" y1="111.286" x2="208.58" y2="111.286" gradientUnits="userSpaceOnUse">
<stop stop-color="white"/>
<stop offset="1" stop-color="#1B2337"/>
</linearGradient>
<radialGradient id="paint4_diamond_601_7" cx="0" cy="0" r="1" gradientUnits="userSpaceOnUse" gradientTransform="translate(122.251 39.4258) rotate(90) scale(14.9712 12.859)">
<stop offset="0.119792" stop-color="#F9FBFF"/>
<stop offset="0.302083" stop-color="#01FCDF" stop-opacity="0.989333"/>
<stop offset="0.4375" stop-color="#128EB3" stop-opacity="0.672195"/>
<stop offset="0.572917" stop-color="#22356F" stop-opacity="0.6"/>
<stop offset="0.734375" stop-color="#1097BB" stop-opacity="0.68"/>
<stop offset="0.890625" stop-color="#00FFE0"/>
<stop offset="0.992535" stop-color="white"/>
</radialGradient>
<radialGradient id="paint5_diamond_601_7" cx="0" cy="0" r="1" gradientUnits="userSpaceOnUse" gradientTransform="translate(122.5 31.9395) rotate(90) scale(25.6086 21.9956)">
<stop offset="0.119792" stop-color="#F9FBFF"/>
<stop offset="0.562383" stop-color="#01FCDF" stop-opacity="0.989333"/>
<stop offset="0.71257" stop-color="#00FFE0"/>
<stop offset="0.992535" stop-color="white"/>
</radialGradient>
<radialGradient id="paint6_diamond_601_7" cx="0" cy="0" r="1" gradientUnits="userSpaceOnUse" gradientTransform="translate(122.001 38.9258) rotate(90) scale(15.3652 13.1974)">
<stop offset="0.119792" stop-color="#F9FBFF"/>
<stop offset="0.562383" stop-color="#01FCDF" stop-opacity="0.989333"/>
<stop offset="0.71257" stop-color="#00FFE0"/>
<stop offset="0.992535" stop-color="white"/>
</radialGradient>
<radialGradient id="paint7_diamond_601_7" cx="0" cy="0" r="1" gradientUnits="userSpaceOnUse" gradientTransform="translate(207.764 2.1875) rotate(90) scale(4.37619 3.75877)">
<stop offset="0.119792" stop-color="#F9FBFF"/>
<stop offset="0.536458" stop-color="#D3FFFA"/>
<stop offset="0.992535" stop-color="white"/>
</radialGradient>
<radialGradient id="paint8_diamond_601_7" cx="0" cy="0" r="1" gradientUnits="userSpaceOnUse" gradientTransform="translate(207.835) rotate(90) scale(7.48559 6.42948)">
<stop offset="0.119792" stop-color="#F9FBFF"/>
<stop offset="0.536458" stop-color="#D3FFFA"/>
<stop offset="0.992535" stop-color="white"/>
</radialGradient>
<radialGradient id="paint9_diamond_601_7" cx="0" cy="0" r="1" gradientUnits="userSpaceOnUse" gradientTransform="translate(207.688 2.04199) rotate(90) scale(4.49135 3.85769)">
<stop offset="0.119792" stop-color="#F9FBFF"/>
<stop offset="0.562383" stop-color="#01FCDF" stop-opacity="0.989333"/>
<stop offset="0.992535" stop-color="white"/>
</radialGradient>
<radialGradient id="paint10_diamond_601_7" cx="0" cy="0" r="1" gradientUnits="userSpaceOnUse" gradientTransform="translate(51.5878 8.98242) rotate(90) scale(2.99424 2.57179)">
<stop offset="0.119792" stop-color="#F9FBFF"/>
<stop offset="0.536458" stop-color="#D3FFFA"/>
<stop offset="0.992535" stop-color="white"/>
</radialGradient>
<radialGradient id="paint11_diamond_601_7" cx="0" cy="0" r="1" gradientUnits="userSpaceOnUse" gradientTransform="translate(51.6383 7.48535) rotate(90) scale(5.12172 4.39912)">
<stop offset="0.119792" stop-color="#F9FBFF"/>
<stop offset="0.536458" stop-color="#D3FFFA"/>
<stop offset="0.992535" stop-color="white"/>
</radialGradient>
<radialGradient id="paint12_diamond_601_7" cx="0" cy="0" r="1" gradientUnits="userSpaceOnUse" gradientTransform="translate(51.54 8.88281) rotate(90) scale(3.07303 2.63947)">
<stop offset="0.119792" stop-color="#F9FBFF"/>
<stop offset="0.562383" stop-color="#01FCDF" stop-opacity="0.989333"/>
<stop offset="0.992535" stop-color="white"/>
</radialGradient>
<radialGradient id="paint13_diamond_601_7" cx="0" cy="0" r="1" gradientUnits="userSpaceOnUse" gradientTransform="translate(15.6658 35.585) rotate(90) scale(2.30326 1.9783)">
<stop offset="0.119792" stop-color="#F9FBFF"/>
<stop offset="0.536458" stop-color="#D3FFFA"/>
<stop offset="0.992535" stop-color="white"/>
</radialGradient>
<radialGradient id="paint14_diamond_601_7" cx="0" cy="0" r="1" gradientUnits="userSpaceOnUse" gradientTransform="translate(15.7061 34.4336) rotate(90) scale(3.93978 3.38394)">
<stop offset="0.119792" stop-color="#F9FBFF"/>
<stop offset="0.536458" stop-color="#D3FFFA"/>
<stop offset="0.992535" stop-color="white"/>
</radialGradient>
<radialGradient id="paint15_diamond_601_7" cx="0" cy="0" r="1" gradientUnits="userSpaceOnUse" gradientTransform="translate(15.6299 35.5088) rotate(90) scale(2.36387 2.03036)">
<stop offset="0.119792" stop-color="#F9FBFF"/>
<stop offset="0.562383" stop-color="#01FCDF" stop-opacity="0.989333"/>
<stop offset="0.992535" stop-color="white"/>
</radialGradient>
<radialGradient id="paint16_diamond_601_7" cx="0" cy="0" r="1" gradientUnits="userSpaceOnUse" gradientTransform="translate(354.997 29.1758) rotate(90) scale(3.45489 2.96745)">
<stop offset="0.119792" stop-color="#F9FBFF"/>
<stop offset="0.536458" stop-color="#D3FFFA"/>
<stop offset="0.992535" stop-color="white"/>
</radialGradient>
<radialGradient id="paint17_diamond_601_7" cx="0" cy="0" r="1" gradientUnits="userSpaceOnUse" gradientTransform="translate(355.051 27.4473) rotate(90) scale(5.90968 5.07591)">
<stop offset="0.119792" stop-color="#F9FBFF"/>
<stop offset="0.536458" stop-color="#D3FFFA"/>
<stop offset="0.992535" stop-color="white"/>
</radialGradient>
<radialGradient id="paint18_diamond_601_7" cx="0" cy="0" r="1" gradientUnits="userSpaceOnUse" gradientTransform="translate(354.937 29.0596) rotate(90) scale(3.54581 3.04554)">
<stop offset="0.119792" stop-color="#F9FBFF"/>
<stop offset="0.562383" stop-color="#01FCDF" stop-opacity="0.989333"/>
<stop offset="0.992535" stop-color="white"/>
</radialGradient>
<radialGradient id="paint19_diamond_601_7" cx="0" cy="0" r="1" gradientUnits="userSpaceOnUse" gradientTransform="translate(266.586 52.9385) rotate(90) scale(8.0614 6.92405)">
<stop offset="0.119792" stop-color="#F9FBFF"/>
<stop offset="0.536458" stop-color="#D3FFFA"/>
<stop offset="0.992535" stop-color="white"/>
</radialGradient>
<radialGradient id="paint20_diamond_601_7" cx="0" cy="0" r="1" gradientUnits="userSpaceOnUse" gradientTransform="translate(266.718 48.9072) rotate(90) scale(13.7892 11.8438)">
<stop offset="0.119792" stop-color="#F9FBFF"/>
<stop offset="0.536458" stop-color="#D3FFFA"/>
<stop offset="0.992535" stop-color="white"/>
</radialGradient>
<radialGradient id="paint21_diamond_601_7" cx="0" cy="0" r="1" gradientUnits="userSpaceOnUse" gradientTransform="translate(266.447 52.6689) rotate(90) scale(8.27355 7.10627)">
<stop offset="0.119792" stop-color="#F9FBFF"/>
<stop offset="0.562383" stop-color="#01FCDF" stop-opacity="0.989333"/>
<stop offset="0.992535" stop-color="white"/>
</radialGradient>
<linearGradient id="paint22_linear_601_7" x1="275.013" y1="659.126" x2="335.075" y2="391.602" gradientUnits="userSpaceOnUse">
<stop stop-color="#040609"/>
<stop offset="0.097401" stop-color="#040609"/>
<stop offset="0.242119" stop-color="#1E232E" stop-opacity="0.78"/>
<stop offset="0.48755" stop-color="#22356F" stop-opacity="0.6"/>
<stop offset="0.659766" stop-color="#1097BB" stop-opacity="0.68"/>
<stop offset="0.84375" stop-color="#00FFE0"/>
<stop offset="0.953125" stop-color="#0CA1AB"/>
<stop offset="1" stop-color="white"/>
</linearGradient>
<radialGradient id="paint23_diamond_601_7" cx="0" cy="0" r="1" gradientUnits="userSpaceOnUse" gradientTransform="translate(264.61 295.236) rotate(90) scale(20.4721 17.5838)">
<stop offset="0.119792" stop-color="#F9FBFF"/>
<stop offset="0.302083" stop-color="#01FCDF" stop-opacity="0.989333"/>
<stop offset="0.4375" stop-color="#128EB3" stop-opacity="0.672195"/>
<stop offset="0.572917" stop-color="#22356F" stop-opacity="0.6"/>
<stop offset="0.734375" stop-color="#1097BB" stop-opacity="0.68"/>
<stop offset="0.890625" stop-color="#00FFE0"/>
<stop offset="0.992535" stop-color="white"/>
</radialGradient>
<radialGradient id="paint24_diamond_601_7" cx="0" cy="0" r="1" gradientUnits="userSpaceOnUse" gradientTransform="translate(264.948 285) rotate(90) scale(35.0181 30.0775)">
<stop offset="0.119792" stop-color="#F9FBFF"/>
<stop offset="0.562383" stop-color="#01FCDF" stop-opacity="0.989333"/>
<stop offset="0.71257" stop-color="#00FFE0"/>
<stop offset="0.992535" stop-color="white"/>
</radialGradient>
<radialGradient id="paint25_diamond_601_7" cx="0" cy="0" r="1" gradientUnits="userSpaceOnUse" gradientTransform="translate(264.264 294.554) rotate(90) scale(21.0109 18.0465)">
<stop offset="0.119792" stop-color="#F9FBFF"/>
<stop offset="0.562383" stop-color="#01FCDF" stop-opacity="0.989333"/>
<stop offset="0.71257" stop-color="#00FFE0"/>
<stop offset="0.992535" stop-color="white"/>
</radialGradient>
<radialGradient id="paint26_diamond_601_7" cx="0" cy="0" r="1" gradientUnits="userSpaceOnUse" gradientTransform="translate(197.869 350.51) rotate(90) scale(12.2833 10.5503)">
<stop offset="0.119792" stop-color="#F9FBFF"/>
<stop offset="0.536458" stop-color="#D3FFFA"/>
<stop offset="0.992535" stop-color="white"/>
</radialGradient>
<radialGradient id="paint27_diamond_601_7" cx="0" cy="0" r="1" gradientUnits="userSpaceOnUse" gradientTransform="translate(198.073 344.368) rotate(90) scale(21.0109 18.0465)">
<stop offset="0.119792" stop-color="#F9FBFF"/>
<stop offset="0.536458" stop-color="#D3FFFA"/>
<stop offset="0.992535" stop-color="white"/>
</radialGradient>
<radialGradient id="paint28_diamond_601_7" cx="0" cy="0" r="1" gradientUnits="userSpaceOnUse" gradientTransform="translate(197.664 350.102) rotate(90) scale(12.6065 10.8279)">
<stop offset="0.119792" stop-color="#F9FBFF"/>
<stop offset="0.562383" stop-color="#01FCDF" stop-opacity="0.989333"/>
<stop offset="0.992535" stop-color="white"/>
</radialGradient>
<radialGradient id="paint29_diamond_601_7" cx="0" cy="0" r="1" gradientUnits="userSpaceOnUse" gradientTransform="translate(50.4708 327.31) rotate(90) scale(12.2833 10.5503)">
<stop offset="0.119792" stop-color="#F9FBFF"/>
<stop offset="0.536458" stop-color="#D3FFFA"/>
<stop offset="0.992535" stop-color="white"/>
</radialGradient>
<radialGradient id="paint30_diamond_601_7" cx="0" cy="0" r="1" gradientUnits="userSpaceOnUse" gradientTransform="translate(50.6741 321.168) rotate(90) scale(21.0109 18.0465)">
<stop offset="0.119792" stop-color="#F9FBFF"/>
<stop offset="0.536458" stop-color="#D3FFFA"/>
<stop offset="0.992535" stop-color="white"/>
</radialGradient>
<radialGradient id="paint31_diamond_601_7" cx="0" cy="0" r="1" gradientUnits="userSpaceOnUse" gradientTransform="translate(50.2654 326.901) rotate(90) scale(12.6065 10.8279)">
<stop offset="0.119792" stop-color="#F9FBFF"/>
<stop offset="0.562383" stop-color="#01FCDF" stop-opacity="0.989333"/>
<stop offset="0.992535" stop-color="white"/>
</radialGradient>
<radialGradient id="paint32_diamond_601_7" cx="0" cy="0" r="1" gradientUnits="userSpaceOnUse" gradientTransform="translate(104.104 354.605) rotate(90) scale(8.18885 7.03352)">
<stop offset="0.119792" stop-color="#F9FBFF"/>
<stop offset="0.536458" stop-color="#D3FFFA"/>
<stop offset="0.992535" stop-color="white"/>
</radialGradient>
<radialGradient id="paint33_diamond_601_7" cx="0" cy="0" r="1" gradientUnits="userSpaceOnUse" gradientTransform="translate(104.238 350.511) rotate(90) scale(14.0072 12.031)">
<stop offset="0.119792" stop-color="#F9FBFF"/>
<stop offset="0.536458" stop-color="#D3FFFA"/>
<stop offset="0.992535" stop-color="white"/>
</radialGradient>
<radialGradient id="paint34_diamond_601_7" cx="0" cy="0" r="1" gradientUnits="userSpaceOnUse" gradientTransform="translate(103.967 354.332) rotate(90) scale(8.40434 7.21861)">
<stop offset="0.119792" stop-color="#F9FBFF"/>
<stop offset="0.562383" stop-color="#01FCDF" stop-opacity="0.989333"/>
<stop offset="0.992535" stop-color="white"/>
</radialGradient>
<linearGradient id="paint35_linear_601_7" x1="292.371" y1="1044.27" x2="360.702" y2="745.272" gradientUnits="userSpaceOnUse">
<stop stop-color="#040508"/>
<stop offset="0.097401" stop-color="#040609"/>
<stop offset="0.242119" stop-color="#1E232E" stop-opacity="0.78"/>
<stop offset="0.48755" stop-color="#22356F" stop-opacity="0.6"/>
<stop offset="0.659766" stop-color="#1097BB" stop-opacity="0.68"/>
<stop offset="0.84375" stop-color="#00FFE0"/>
<stop offset="0.953125" stop-color="#0CA1AB"/>
<stop offset="1" stop-color="white"/>
</linearGradient>
<radialGradient id="paint36_diamond_601_7" cx="0" cy="0" r="1" gradientUnits="userSpaceOnUse" gradientTransform="translate(49.127 728.314) rotate(90) scale(4.7893 4.1136)">
<stop offset="0.119792" stop-color="#F9FBFF"/>
<stop offset="0.536458" stop-color="#D3FFFA"/>
<stop offset="0.992535" stop-color="white"/>
</radialGradient>
<radialGradient id="paint37_diamond_601_7" cx="0" cy="0" r="1" gradientUnits="userSpaceOnUse" gradientTransform="translate(49.2079 725.919) rotate(90) scale(8.19222 7.03641)">
<stop offset="0.119792" stop-color="#F9FBFF"/>
<stop offset="0.536458" stop-color="#D3FFFA"/>
<stop offset="0.992535" stop-color="white"/>
</radialGradient>
<radialGradient id="paint38_diamond_601_7" cx="0" cy="0" r="1" gradientUnits="userSpaceOnUse" gradientTransform="translate(49.0505 728.154) rotate(90) scale(4.91533 4.22185)">
<stop offset="0.119792" stop-color="#F9FBFF"/>
<stop offset="0.562383" stop-color="#01FCDF" stop-opacity="0.989333"/>
<stop offset="0.992535" stop-color="white"/>
</radialGradient>
<radialGradient id="paint39_diamond_601_7" cx="0" cy="0" r="1" gradientUnits="userSpaceOnUse" gradientTransform="translate(154.204 789.077) rotate(90) scale(9.25931 7.95295)">
<stop offset="0.119792" stop-color="#F9FBFF"/>
<stop offset="0.536458" stop-color="#D3FFFA"/>
<stop offset="0.992535" stop-color="white"/>
</radialGradient>
<radialGradient id="paint40_diamond_601_7" cx="0" cy="0" r="1" gradientUnits="userSpaceOnUse" gradientTransform="translate(154.359 784.447) rotate(90) scale(15.8383 13.6037)">
<stop offset="0.119792" stop-color="#F9FBFF"/>
<stop offset="0.536458" stop-color="#D3FFFA"/>
<stop offset="0.992535" stop-color="white"/>
</radialGradient>
<radialGradient id="paint41_diamond_601_7" cx="0" cy="0" r="1" gradientUnits="userSpaceOnUse" gradientTransform="translate(154.05 788.769) rotate(90) scale(9.50297 8.16224)">
<stop offset="0.119792" stop-color="#F9FBFF"/>
<stop offset="0.562383" stop-color="#01FCDF" stop-opacity="0.989333"/>
<stop offset="0.992535" stop-color="white"/>
</radialGradient>
<radialGradient id="paint42_diamond_601_7" cx="0" cy="0" r="1" gradientUnits="userSpaceOnUse" gradientTransform="translate(298.903 619.276) rotate(90) scale(2.55429 2.19392)">
<stop offset="0.119792" stop-color="#F9FBFF"/>
<stop offset="0.536458" stop-color="#D3FFFA"/>
<stop offset="0.992535" stop-color="white"/>
</radialGradient>
<radialGradient id="paint43_diamond_601_7" cx="0" cy="0" r="1" gradientUnits="userSpaceOnUse" gradientTransform="translate(298.943 618) rotate(90) scale(4.36918 3.75275)">
<stop offset="0.119792" stop-color="#F9FBFF"/>
<stop offset="0.536458" stop-color="#D3FFFA"/>
<stop offset="0.992535" stop-color="white"/>
</radialGradient>
<radialGradient id="paint44_diamond_601_7" cx="0" cy="0" r="1" gradientUnits="userSpaceOnUse" gradientTransform="translate(298.86 619.191) rotate(90) scale(2.62151 2.25165)">
<stop offset="0.119792" stop-color="#F9FBFF"/>
<stop offset="0.562383" stop-color="#01FCDF" stop-opacity="0.989333"/>
<stop offset="0.992535" stop-color="white"/>
</radialGradient>
<radialGradient id="paint45_diamond_601_7" cx="0" cy="0" r="1" gradientUnits="userSpaceOnUse" gradientTransform="translate(189.278 747.692) rotate(90) scale(13.3846 11.4962)">
<stop offset="0.119792" stop-color="#F9FBFF"/>
<stop offset="0.302083" stop-color="#01FCDF" stop-opacity="0.989333"/>
<stop offset="0.4375" stop-color="#128EB3" stop-opacity="0.672195"/>
<stop offset="0.572917" stop-color="#22356F" stop-opacity="0.6"/>
<stop offset="0.734375" stop-color="#1097BB" stop-opacity="0.68"/>
<stop offset="0.890625" stop-color="#00FFE0"/>
<stop offset="0.992535" stop-color="white"/>
</radialGradient>
<radialGradient id="paint46_diamond_601_7" cx="0" cy="0" r="1" gradientUnits="userSpaceOnUse" gradientTransform="translate(189.5 741) rotate(90) scale(22.8947 19.6646)">
<stop offset="0.119792" stop-color="#F9FBFF"/>
<stop offset="0.562383" stop-color="#01FCDF" stop-opacity="0.989333"/>
<stop offset="0.71257" stop-color="#00FFE0"/>
<stop offset="0.992535" stop-color="white"/>
</radialGradient>
<radialGradient id="paint47_diamond_601_7" cx="0" cy="0" r="1" gradientUnits="userSpaceOnUse" gradientTransform="translate(189.055 747.246) rotate(90) scale(13.7368 11.7988)">
<stop offset="0.119792" stop-color="#F9FBFF"/>
<stop offset="0.562383" stop-color="#01FCDF" stop-opacity="0.989333"/>
<stop offset="0.71257" stop-color="#00FFE0"/>
<stop offset="0.992535" stop-color="white"/>
</radialGradient>
</defs>
</svg>
