<svg width="50" height="50" viewBox="0 0 50 50" fill="none" xmlns="http://www.w3.org/2000/svg">
<g clip-path="url(#clip0_234_576)">
<path d="M9.16727 22.4996C7.32896 22.4996 5.83398 21.0046 5.83398 19.1663C5.83398 17.328 7.32896 15.833 9.16727 15.833C11.0056 15.833 12.5005 17.328 12.5005 19.1663C12.5005 21.0046 11.0056 22.4996 9.16727 22.4996ZM9.16727 17.4996C8.24792 17.4996 7.50063 18.2473 7.50063 19.1663C7.50063 20.0856 8.24792 20.8329 9.16727 20.8329C10.0862 20.8329 10.8339 20.0856 10.8339 19.1663C10.8339 18.2473 10.0862 17.4996 9.16727 17.4996Z" fill="white"/>
<path d="M40.8333 33.3336C38.995 33.3336 37.5 31.8386 37.5 30.0003C37.5 28.162 38.995 26.667 40.8333 26.667C42.6716 26.667 44.1666 28.162 44.1666 30.0003C44.1666 31.8386 42.6716 33.3336 40.8333 33.3336ZM40.8333 28.3336C39.9143 28.3336 39.1666 29.0813 39.1666 30.0003C39.1666 30.9196 39.9143 31.6669 40.8333 31.6669C41.7526 31.6669 42.4999 30.9196 42.4999 30.0003C42.4999 29.0813 41.7526 28.3336 40.8333 28.3336Z" fill="white"/>
<path d="M9.16727 44.1666C7.32896 44.1666 5.83398 42.6716 5.83398 40.8333C5.83398 38.995 7.32896 37.5 9.16727 37.5C11.0056 37.5 12.5005 38.995 12.5005 40.8333C12.5005 42.6716 11.0056 44.1666 9.16727 44.1666ZM9.16727 39.1666C8.24792 39.1666 7.50063 39.9143 7.50063 40.8333C7.50063 41.7526 8.24792 42.4999 9.16727 42.4999C10.0862 42.4999 10.8339 41.7526 10.8339 40.8333C10.8339 39.9143 10.0862 39.1666 9.16727 39.1666Z" fill="white"/>
<path d="M39.1665 18.3336H15.8331C15.3731 18.3336 15 17.9602 15 17.5001C15 17.0401 15.3731 16.667 15.8331 16.667H39.1665C39.6265 16.667 40 17.0401 40 17.5001C40 17.9602 39.6265 18.3336 39.1665 18.3336Z" fill="white"/>
<path d="M43.3333 21.6666H15.8331C15.3731 21.6666 15 21.2932 15 20.8331C15 20.3731 15.3731 20 15.8331 20H43.3333C43.7933 20 44.1664 20.3731 44.1664 20.8331C44.1664 21.2932 43.7933 21.6666 43.3333 21.6666Z" fill="white"/>
<path d="M30.0005 29.1666H6.66711C6.20706 29.1666 5.83398 28.7932 5.83398 28.3331C5.83398 27.8731 6.20706 27.5 6.66711 27.5H30.0005C30.4605 27.5 30.834 27.8731 30.834 28.3331C30.834 28.7932 30.4605 29.1666 30.0005 29.1666Z" fill="white"/>
<path d="M34.1673 32.4996H6.66711C6.20706 32.4996 5.83398 32.1262 5.83398 31.6661C5.83398 31.2061 6.20706 30.833 6.66711 30.833H34.1673C34.6273 30.833 35.0004 31.2061 35.0004 31.6661C35.0004 32.1262 34.6273 32.4996 34.1673 32.4996Z" fill="white"/>
<path d="M39.1665 40.0006H15.8331C15.3731 40.0006 15 39.6272 15 39.1671C15 38.7071 15.3731 38.334 15.8331 38.334H39.1665C39.6265 38.334 40 38.7071 40 39.1671C40 39.6272 39.6265 40.0006 39.1665 40.0006Z" fill="white"/>
<path d="M43.3333 43.3336H15.8331C15.3731 43.3336 15 42.9602 15 42.5001C15 42.0401 15.3731 41.667 15.8331 41.667H43.3333C43.7933 41.667 44.1664 42.0401 44.1664 42.5001C44.1664 42.9602 43.7933 43.3336 43.3333 43.3336Z" fill="white"/>
<path d="M46.2502 50H3.74985C1.68266 50 0 48.3173 0 46.2502V3.74985C0 1.68266 1.68266 0 3.74985 0H46.2502C48.3173 0 50 1.68266 50 3.74985V46.2502C50 48.3173 48.3173 50 46.2502 50ZM3.74985 1.66664C2.60162 1.66664 1.66664 2.60162 1.66664 3.74985V46.2502C1.66664 47.3984 2.60162 48.3334 3.74985 48.3334H46.2502C47.3991 48.3334 48.3334 47.3984 48.3334 46.2502V3.74985C48.3334 2.60162 47.3984 1.66664 46.2502 1.66664H3.74985Z" fill="white"/>
<path d="M7.50078 8.33293H4.1675C3.70744 8.33293 3.33398 7.95985 3.33398 7.4998V4.16652C3.33398 3.70647 3.70744 3.33301 4.1675 3.33301H7.50078C7.96083 3.33301 8.33391 3.70647 8.33391 4.16652V7.4998C8.33391 7.95985 7.96083 8.33293 7.50078 8.33293ZM5.00063 6.66629H6.66727V4.99965H5.00063V6.66629Z" fill="white"/>
<path d="M14.1668 8.33293H10.8335C10.3735 8.33293 10 7.95985 10 7.4998V4.16652C10 3.70647 10.3735 3.33301 10.8335 3.33301H14.1668C14.6268 3.33301 15.0003 3.70647 15.0003 4.16652V7.4998C15.0003 7.95985 14.6268 8.33293 14.1668 8.33293ZM11.6666 6.66629H13.3337V4.99965H11.6666V6.66629Z" fill="white"/>
<path d="M20.8324 8.33293H17.4991C17.0391 8.33293 16.666 7.95985 16.666 7.4998V4.16652C16.666 3.70647 17.0391 3.33301 17.4991 3.33301H20.8324C21.2925 3.33301 21.6659 3.70647 21.6659 4.16652V7.4998C21.6659 7.95985 21.2925 8.33293 20.8324 8.33293ZM18.3327 6.66629H19.9993V4.99965H18.3327V6.66629Z" fill="white"/>
<path d="M49.1665 11.6665H0.833511C0.373459 11.6665 0 11.2934 0 10.8334V3.74985C0 1.68266 1.68266 0 3.74985 0H46.2502C48.3173 0 50 1.68266 50 3.74985V10.8334C50 11.2934 49.6265 11.6665 49.1665 11.6665ZM1.66664 9.99985H48.3334V3.74985C48.3334 2.60162 47.3984 1.66664 46.2502 1.66664H3.74985C2.60162 1.66664 1.66664 2.60162 1.66664 3.74985V9.99985Z" fill="white"/>
</g>
<defs>
<clipPath id="clip0_234_576">
<rect width="50" height="50" fill="white"/>
</clipPath>
</defs>
</svg>
