<svg width="50" height="42" viewBox="0 0 50 42" fill="none" xmlns="http://www.w3.org/2000/svg">
<path d="M47.4468 30.14H2.55347C1.14551 30.14 0 28.995 0 27.5873V3.44788C0 2.04022 1.14551 0.89502 2.55347 0.89502H47.4468C48.8543 0.89502 50 2.04022 50 3.44788V27.5873C50 28.995 48.8543 30.14 47.4468 30.14ZM2.55347 2.95716C2.28265 2.95716 2.06194 3.17726 2.06194 3.44788V27.5873C2.06194 27.8579 2.28265 28.0781 2.55347 28.0781H47.4468C47.7176 28.0781 47.938 27.8579 47.938 27.5873V3.44788C47.938 3.17726 47.7177 2.95716 47.4468 2.95716H2.55347Z" fill="white"/>
<path d="M19.6623 23.3532C19.3237 23.168 19.1035 22.8228 19.1035 22.4371V8.59844C19.1035 8.21252 19.3192 7.85915 19.6623 7.68211C20.0051 7.50517 20.4178 7.53466 20.7323 7.75834L30.4627 14.6776C30.735 14.8711 30.8962 15.1842 30.8962 15.5178C30.8962 15.8516 30.735 16.1647 30.4627 16.3581C30.4627 16.3581 23.1645 21.5473 20.7323 23.2772C20.5545 23.4036 20.1714 23.6319 19.6623 23.3532ZM21.1659 10.5968V20.4387L28.086 15.5178L21.1659 10.5968Z" fill="white"/>
<path d="M48.9691 35.9928H29.2619C28.8043 34.2397 27.2071 32.9424 25.3128 32.9424C23.4186 32.9424 21.8218 34.2397 21.3641 35.9928H1.03102C0.461735 35.9928 0 36.4545 0 37.0238C0 37.5933 0.461735 38.0548 1.03102 38.0548H21.3642C21.8219 39.8079 23.4188 41.1054 25.3129 41.1054C27.2072 41.1054 28.8044 39.8078 29.262 38.0548H48.9691C49.538 38.0548 50 37.5934 50 37.0238C50 36.4545 49.538 35.9928 48.9691 35.9928ZM25.3128 39.0432C24.1997 39.0432 23.2936 38.1373 23.2936 37.0237C23.2936 35.9103 24.1997 35.0045 25.3128 35.0045C26.4263 35.0045 27.3322 35.9103 27.3322 37.0237C27.3322 38.1374 26.4263 39.0432 25.3128 39.0432Z" fill="white"/>
</svg>
